<svg width="176" height="51" viewBox="0 0 176 51" fill="none" xmlns="http://www.w3.org/2000/svg">
<path d="M175.021 45.1185C175.021 47.8364 172.78 50.0379 170.009 50.0379H5.99494C3.22496 50.0379 0.976562 47.8364 0.976562 45.1185V5.88819C0.976562 3.17162 3.22496 0.962402 5.99494 0.962402H170.008C172.78 0.962402 175.02 3.17162 175.02 5.88819L175.021 45.1185Z" fill="white"/>
<path d="M39.2808 25.2247C39.243 21.1154 42.7213 19.1162 42.8803 19.0231C40.9104 16.2143 37.8572 15.8305 36.7842 15.7999C34.2198 15.536 31.7324 17.3006 30.4261 17.3006C29.0937 17.3006 27.0821 15.8254 24.914 15.8687C22.1241 15.9108 19.5141 17.4905 18.0826 19.9436C15.1284 24.9455 17.3317 32.2958 20.162 36.3389C21.5778 38.3189 23.2322 40.5298 25.3977 40.452C27.5162 40.3666 28.3075 39.1311 30.8641 39.1311C33.3972 39.1311 34.1403 40.452 36.3488 40.4023C38.6224 40.3666 40.0539 38.4133 41.4202 36.4154C43.0563 34.1459 43.7134 31.9108 43.7395 31.796C43.686 31.7782 39.3238 30.15 39.2808 25.2247Z" fill="black"/>
<path d="M35.109 13.1402C36.2484 11.7467 37.028 9.85073 36.8116 7.92676C35.1624 7.99816 33.1 9.04238 31.9123 10.4054C30.8615 11.6064 29.9228 13.575 30.1653 15.4263C32.0179 15.5615 33.92 14.5121 35.109 13.1402Z" fill="black"/>
<path d="M63.9436 12.7618C63.9436 14.2625 63.4834 15.3922 62.5643 16.1508C61.713 16.8508 60.5031 17.2014 58.9361 17.2014C58.1591 17.2014 57.4942 17.1682 56.9375 17.1019V8.9024C57.6637 8.78765 58.4459 8.729 59.2907 8.729C60.7834 8.729 61.9085 9.04648 62.6673 9.68143C63.5173 10.3993 63.9436 11.4256 63.9436 12.7618ZM62.503 12.7988C62.503 11.826 62.2397 11.0801 61.713 10.5599C61.1863 10.041 60.4171 9.78088 59.4041 9.78088C58.9739 9.78088 58.6075 9.80893 58.3038 9.86758V16.1011C58.472 16.1266 58.7796 16.138 59.2268 16.138C60.2724 16.138 61.0794 15.8537 61.6478 15.2851C62.2162 14.7164 62.503 13.8877 62.503 12.7988Z" fill="black"/>
<path d="M71.5817 14.0725C71.5817 14.9969 71.3118 15.7542 70.7721 16.3484C70.2063 16.9591 69.4567 17.2638 68.5206 17.2638C67.6184 17.2638 66.9001 16.9718 66.3643 16.3853C65.8298 15.8001 65.5625 15.0619 65.5625 14.1719C65.5625 13.2412 65.8376 12.4775 66.3904 11.8846C66.9431 11.2917 67.6862 10.9946 68.6223 10.9946C69.5245 10.9946 70.2493 11.2866 70.7982 11.8718C71.3197 12.4405 71.5817 13.1749 71.5817 14.0725ZM70.1646 14.1158C70.1646 13.5612 70.042 13.0856 69.7982 12.6891C69.5114 12.2097 69.1034 11.97 68.5728 11.97C68.0239 11.97 67.6067 12.2097 67.3199 12.6891C67.0748 13.0856 66.9536 13.5689 66.9536 14.1401C66.9536 14.6947 67.0761 15.1703 67.3199 15.5668C67.6158 16.0462 68.0278 16.2859 68.5597 16.2859C69.0812 16.2859 69.4906 16.0424 69.7852 15.554C70.0381 15.1499 70.1646 14.6705 70.1646 14.1158Z" fill="black"/>
<path d="M81.8222 11.1169L79.8993 17.1273H78.6477L77.8512 14.5174C77.6491 13.8658 77.4848 13.2181 77.3571 12.5755H77.3323C77.2137 13.236 77.0494 13.8824 76.8382 14.5174L75.9921 17.1273H74.7262L72.918 11.1169H74.3221L75.0169 13.9742C75.1851 14.65 75.3233 15.2938 75.4341 15.9033H75.4589C75.5606 15.4009 75.7287 14.7609 75.966 13.987L76.8382 11.1182H77.9516L78.7872 13.9258C78.9893 14.6104 79.1536 15.2696 79.28 15.9046H79.3178C79.4104 15.2862 79.5499 14.627 79.735 13.9258L80.4807 11.1182H81.8222V11.1169Z" fill="black"/>
<path d="M88.9103 17.1273H87.5441V13.6848C87.5441 12.624 87.1321 12.0936 86.3055 12.0936C85.9001 12.0936 85.5729 12.2389 85.3186 12.5309C85.067 12.8229 84.9393 13.1671 84.9393 13.5611V17.126H83.573V12.8344C83.573 12.3065 83.556 11.734 83.5234 11.1144H84.7241L84.788 12.0541H84.8258C84.9849 11.7621 85.2222 11.5211 85.5337 11.3286C85.904 11.1042 86.3186 10.9907 86.7723 10.9907C87.3459 10.9907 87.823 11.1718 88.2024 11.5351C88.6744 11.9801 88.9103 12.6444 88.9103 13.5267V17.1273V17.1273Z" fill="black"/>
<path d="M92.6736 17.1273H91.3086V8.35913H92.6736V17.1273Z" fill="black"/>
<path d="M100.718 14.0725C100.718 14.9969 100.449 15.7542 99.9088 16.3484C99.343 16.9591 98.5921 17.2638 97.6573 17.2638C96.7539 17.2638 96.0355 16.9718 95.501 16.3853C94.9665 15.8001 94.6992 15.0619 94.6992 14.1719C94.6992 13.2412 94.9743 12.4775 95.5271 11.8846C96.0798 11.2917 96.823 10.9946 97.7577 10.9946C98.6612 10.9946 99.3847 11.2866 99.9349 11.8718C100.456 12.4405 100.718 13.1749 100.718 14.0725ZM99.3 14.1158C99.3 13.5612 99.1774 13.0856 98.9336 12.6891C98.6481 12.2097 98.2388 11.97 97.7095 11.97C97.1593 11.97 96.7421 12.2097 96.4566 12.6891C96.2115 13.0856 96.0903 13.5689 96.0903 14.1401C96.0903 14.6947 96.2128 15.1703 96.4566 15.5668C96.7526 16.0462 97.1645 16.2859 97.6964 16.2859C98.2179 16.2859 98.626 16.0424 98.9206 15.554C99.1748 15.1499 99.3 14.6705 99.3 14.1158Z" fill="black"/>
<path d="M107.33 17.1274H106.104L106.002 16.4351H105.964C105.544 16.9871 104.946 17.2638 104.169 17.2638C103.589 17.2638 103.12 17.0815 102.766 16.7194C102.446 16.3904 102.285 15.9812 102.285 15.4954C102.285 14.761 102.598 14.2013 103.228 13.8137C103.856 13.4261 104.74 13.2361 105.878 13.245V13.1328C105.878 12.341 105.453 11.9458 104.602 11.9458C103.996 11.9458 103.461 12.095 103 12.3908L102.722 11.5136C103.293 11.168 103.998 10.9946 104.83 10.9946C106.436 10.9946 107.242 11.8234 107.242 13.4809V15.6943C107.242 16.2948 107.272 16.7729 107.33 17.1274ZM105.912 15.0619V14.135C104.405 14.1095 103.651 14.5136 103.651 15.3462C103.651 15.6599 103.737 15.8945 103.913 16.0513C104.089 16.2081 104.314 16.2859 104.581 16.2859C104.881 16.2859 105.161 16.1928 105.417 16.0079C105.673 15.8218 105.831 15.5859 105.89 15.2965C105.904 15.2315 105.912 15.1524 105.912 15.0619Z" fill="black"/>
<path d="M115.093 17.1273H113.881L113.817 16.1621H113.779C113.392 16.8965 112.732 17.2637 111.805 17.2637C111.065 17.2637 110.448 16.9794 109.959 16.4108C109.47 15.8421 109.227 15.1039 109.227 14.1974C109.227 13.2245 109.491 12.4366 110.023 11.8348C110.538 11.2738 111.169 10.9933 111.92 10.9933C112.745 10.9933 113.323 11.2649 113.651 11.8093H113.677V8.35913H115.045V15.5081C115.045 16.0933 115.061 16.6326 115.093 17.1273ZM113.677 14.5926V13.5905C113.677 13.4171 113.664 13.2768 113.64 13.1697C113.563 12.8484 113.397 12.5781 113.145 12.3601C112.891 12.1421 112.585 12.0324 112.232 12.0324C111.722 12.0324 111.323 12.23 111.03 12.6266C110.739 13.0231 110.592 13.5293 110.592 14.1476C110.592 14.7418 110.731 15.2237 111.011 15.5948C111.307 15.99 111.706 16.1876 112.206 16.1876C112.654 16.1876 113.013 16.0232 113.285 15.6929C113.548 15.3882 113.677 15.021 113.677 14.5926Z" fill="black"/>
<path d="M126.781 14.0725C126.781 14.9969 126.511 15.7542 125.971 16.3484C125.406 16.9591 124.657 17.2638 123.72 17.2638C122.819 17.2638 122.101 16.9718 121.564 16.3853C121.029 15.8001 120.762 15.0619 120.762 14.1719C120.762 13.2412 121.037 12.4775 121.59 11.8846C122.142 11.2917 122.885 10.9946 123.823 10.9946C124.724 10.9946 125.45 11.2866 125.997 11.8718C126.519 12.4405 126.781 13.1749 126.781 14.0725ZM125.365 14.1158C125.365 13.5612 125.243 13.0856 124.999 12.6891C124.711 12.2097 124.304 11.97 123.772 11.97C123.224 11.97 122.807 12.2097 122.519 12.6891C122.274 13.0856 122.153 13.5689 122.153 14.1401C122.153 14.6947 122.275 15.1703 122.519 15.5668C122.815 16.0462 123.227 16.2859 123.759 16.2859C124.28 16.2859 124.691 16.0424 124.986 15.554C125.237 15.1499 125.365 14.6705 125.365 14.1158Z" fill="black"/>
<path d="M134.124 17.1273H132.759V13.6848C132.759 12.624 132.347 12.0936 131.519 12.0936C131.114 12.0936 130.786 12.2389 130.533 12.5309C130.281 12.8229 130.154 13.1671 130.154 13.5611V17.126H128.787V12.8344C128.787 12.3065 128.771 11.734 128.738 11.1144H129.938L130.002 12.0541H130.039C130.2 11.7621 130.437 11.5211 130.747 11.3286C131.119 11.1042 131.532 10.9907 131.987 10.9907C132.559 10.9907 133.037 11.1718 133.416 11.5351C133.889 11.9801 134.124 12.6444 134.124 13.5267V17.1273V17.1273Z" fill="black"/>
<path d="M143.321 12.1178H141.817V15.0376C141.817 15.7796 142.084 16.1507 142.613 16.1507C142.858 16.1507 143.062 16.1303 143.222 16.0882L143.257 17.1018C142.987 17.2013 142.633 17.251 142.196 17.251C141.656 17.251 141.236 17.0903 140.933 16.769C140.628 16.4477 140.476 15.9071 140.476 15.1485V12.1178H139.578V11.117H140.476V10.0154L141.815 9.62012V11.1157H143.32V12.1178H143.321Z" fill="black"/>
<path d="M150.552 17.1273H149.185V13.7103C149.185 12.6329 148.773 12.0936 147.947 12.0936C147.314 12.0936 146.881 12.406 146.644 13.0307C146.603 13.1621 146.58 13.3227 146.58 13.5114V17.126H145.215V8.35913H146.58V11.9814H146.606C147.036 11.3222 147.653 10.9933 148.452 10.9933C149.018 10.9933 149.486 11.1743 149.857 11.5377C150.32 11.9903 150.552 12.6635 150.552 13.5535V17.1273V17.1273Z" fill="black"/>
<path d="M158.015 13.8379C158.015 14.0776 157.996 14.279 157.964 14.4435H153.866C153.884 15.0377 154.08 15.4903 154.459 15.8039C154.806 16.0844 155.253 16.2247 155.801 16.2247C156.407 16.2247 156.96 16.1303 157.458 15.9404L157.672 16.8686C157.089 17.1159 156.403 17.2396 155.609 17.2396C154.658 17.2396 153.908 16.9655 153.366 16.4172C152.821 15.869 152.551 15.1333 152.551 14.2102C152.551 13.3037 152.802 12.5489 153.31 11.9471C153.839 11.3045 154.555 10.9832 155.458 10.9832C156.342 10.9832 157.013 11.3045 157.467 11.9471C157.833 12.4571 158.015 13.0882 158.015 13.8379ZM156.711 13.4924C156.721 13.0958 156.631 12.7541 156.446 12.466C156.209 12.095 155.848 11.9088 155.359 11.9088C154.913 11.9088 154.549 12.0899 154.272 12.4532C154.045 12.7427 153.911 13.0882 153.866 13.4924H156.711Z" fill="black"/>
<path d="M69.9401 40.1679H66.9794L65.3576 35.1839H59.7203L58.1755 40.1679H55.293L60.878 23.2002H64.3276L69.9401 40.1679ZM64.8687 33.0929L63.402 28.6623C63.2469 28.2097 62.9561 27.1438 62.5272 25.4659H62.4751C62.3043 26.1875 62.0292 27.2534 61.6511 28.6623L60.2105 33.0929H64.8687V33.0929Z" fill="black"/>
<path d="M84.3014 33.8998C84.3014 35.9806 83.7265 37.6254 82.5766 38.8328C81.5467 39.9076 80.2678 40.4444 78.7411 40.4444C77.0932 40.4444 75.9095 39.8655 75.1885 38.7078H75.1364V45.153H72.3569V31.9605C72.3569 30.6524 72.3217 29.3098 72.2539 27.9328H74.6983L74.8535 29.8721H74.9056C75.8326 28.4109 77.2393 27.6816 79.127 27.6816C80.6028 27.6816 81.8348 28.2516 82.8204 29.3927C83.8086 30.5351 84.3014 32.037 84.3014 33.8998ZM81.4698 33.9993C81.4698 32.8084 81.196 31.8267 80.6458 31.054C80.0448 30.2482 79.2378 29.8453 78.2262 29.8453C77.5404 29.8453 76.9172 30.0697 76.3606 30.5121C75.8026 30.9584 75.4375 31.5411 75.2668 32.2627C75.1807 32.5993 75.1377 32.8747 75.1377 33.0915V35.1315C75.1377 36.0214 75.4167 36.7724 75.9747 37.3857C76.5327 37.9989 77.2575 38.3049 78.1492 38.3049C79.1961 38.3049 80.0109 37.9097 80.5937 37.1217C81.1777 36.3325 81.4698 35.2921 81.4698 33.9993Z" fill="black"/>
<path d="M98.6908 33.8998C98.6908 35.9806 98.1158 37.6254 96.9647 38.8328C95.936 39.9076 94.6571 40.4444 93.1305 40.4444C91.4826 40.4444 90.2988 39.8655 89.5792 38.7078H89.527V45.153H86.7475V31.9605C86.7475 30.6524 86.7123 29.3098 86.6445 27.9328H89.089L89.2441 29.8721H89.2963C90.2219 28.4109 91.6286 27.6816 93.5177 27.6816C94.9922 27.6816 96.2242 28.2516 97.2124 29.3927C98.1967 30.5351 98.6908 32.037 98.6908 33.8998ZM95.8591 33.9993C95.8591 32.8084 95.584 31.8267 95.0339 31.054C94.4329 30.2482 93.6285 29.8453 92.6155 29.8453C91.9284 29.8453 91.3066 30.0697 90.7486 30.5121C90.1906 30.9584 89.8269 31.5411 89.6561 32.2627C89.5713 32.5993 89.527 32.8747 89.527 33.0915V35.1315C89.527 36.0214 89.806 36.7724 90.3614 37.3857C90.9194 37.9977 91.6442 38.3049 92.5386 38.3049C93.5855 38.3049 94.4003 37.9097 94.983 37.1217C95.5671 36.3325 95.8591 35.2921 95.8591 33.9993Z" fill="black"/>
<path d="M114.779 35.4094C114.779 36.8527 114.267 38.027 113.238 38.9335C112.108 39.9242 110.534 40.4189 108.512 40.4189C106.645 40.4189 105.149 40.067 104.016 39.3619L104.66 37.0963C105.88 37.8179 107.219 38.18 108.678 38.18C109.725 38.18 110.539 37.948 111.125 37.4864C111.707 37.0249 111.998 36.4052 111.998 35.6326C111.998 34.9441 111.758 34.3639 111.277 33.8935C110.799 33.423 110 32.9857 108.884 32.5815C105.846 31.4735 104.329 29.8504 104.329 27.7161C104.329 26.3212 104.86 25.1776 105.926 24.2876C106.987 23.3964 108.403 22.9514 110.173 22.9514C111.752 22.9514 113.063 23.2204 114.11 23.7572L113.415 25.9732C112.438 25.453 111.332 25.1929 110.095 25.1929C109.117 25.1929 108.353 25.4287 107.805 25.8979C107.343 26.3174 107.111 26.8287 107.111 27.4343C107.111 28.105 107.375 28.6596 107.907 29.0956C108.37 29.4985 109.211 29.9346 110.431 30.4051C111.924 30.9928 113.02 31.6801 113.726 32.468C114.428 33.2534 114.779 34.2364 114.779 35.4094Z" fill="black"/>
<path d="M123.97 29.9728H120.907V35.913C120.907 37.4239 121.446 38.1787 122.529 38.1787C123.025 38.1787 123.437 38.1366 123.763 38.0525L123.84 40.1167C123.292 40.3169 122.572 40.4176 121.678 40.4176C120.581 40.4176 119.723 40.0899 119.104 39.4359C118.487 38.7805 118.177 37.6815 118.177 36.1374V29.9703H116.352V27.9303H118.177V25.6901L120.907 24.8843V27.9303H123.97V29.9728Z" fill="black"/>
<path d="M137.793 33.9495C137.793 35.8301 137.242 37.3741 136.145 38.5816C134.994 39.8247 133.466 40.4443 131.561 40.4443C129.725 40.4443 128.264 39.8489 127.174 38.6581C126.084 37.4672 125.539 35.964 125.539 34.1522C125.539 32.2563 126.1 30.7033 127.225 29.4959C128.347 28.2872 129.862 27.6829 131.767 27.6829C133.602 27.6829 135.08 28.2783 136.194 29.4704C137.261 30.6268 137.793 32.1199 137.793 33.9495ZM134.909 34.0375C134.909 32.9091 134.662 31.9414 134.163 31.1343C133.58 30.1576 132.747 29.6706 131.668 29.6706C130.55 29.6706 129.702 30.1589 129.119 31.1343C128.62 31.9426 128.373 32.9257 128.373 34.0885C128.373 35.2168 128.62 36.1846 129.119 36.9904C129.72 37.967 130.56 38.4541 131.643 38.4541C132.704 38.4541 133.537 37.9568 134.138 36.9649C134.651 36.1425 134.909 35.1646 134.909 34.0375Z" fill="black"/>
<path d="M146.826 30.3234C146.551 30.2737 146.258 30.2482 145.95 30.2482C144.972 30.2482 144.216 30.609 143.684 31.332C143.221 31.9695 142.989 32.7753 142.989 33.7481V40.1677H140.211L140.237 31.7859C140.237 30.3757 140.202 29.0918 140.133 27.9341H142.554L142.655 30.275H142.732C143.026 29.4705 143.489 28.8228 144.122 28.337C144.741 27.8997 145.41 27.6816 146.131 27.6816C146.388 27.6816 146.62 27.6995 146.826 27.7314V30.3234Z" fill="black"/>
<path d="M159.259 33.4714C159.259 33.9585 159.226 34.369 159.157 34.7043H150.818C150.851 35.913 151.254 36.8374 152.028 37.4749C152.731 38.0448 153.64 38.3304 154.756 38.3304C155.99 38.3304 157.117 38.1379 158.13 37.7516L158.565 39.6386C157.381 40.1435 155.984 40.3947 154.371 40.3947C152.431 40.3947 150.908 39.8362 149.8 38.7206C148.695 37.605 148.141 36.1068 148.141 34.2275C148.141 32.3826 148.656 30.8462 149.687 29.6209C150.766 28.3128 152.225 27.6587 154.061 27.6587C155.864 27.6587 157.229 28.3128 158.156 29.6209C158.89 30.66 159.259 31.9452 159.259 33.4714ZM156.608 32.7663C156.626 31.9605 156.445 31.2644 156.068 30.6766C155.587 29.9205 154.848 29.5431 153.853 29.5431C152.945 29.5431 152.206 29.9116 151.641 30.6511C151.178 31.2389 150.903 31.944 150.818 32.7651H156.608V32.7663Z" fill="black"/>
</svg>
