<svg width="280" height="225" viewBox="0 0 280 225" fill="none" xmlns="http://www.w3.org/2000/svg">
<rect x="0.5" y="0.5" width="279" height="224" rx="11.5" fill="url(#paint0_linear_238_7837)" fill-opacity="0.4"/>
<g clip-path="url(#clip0_238_7837)">
<g opacity="0.1" filter="url(#filter0_d_238_7837)">
<rect x="68.1072" y="38.6127" width="148.483" height="111.362" rx="4.45449" fill="#5354D1"/>
</g>
<path d="M89.0254 51.0991C90.3442 51.0991 91.4132 50.0256 91.4132 48.7014C91.4132 47.3772 90.3442 46.3037 89.0254 46.3037C87.7067 46.3037 86.6376 47.3772 86.6376 48.7014C86.6376 50.0256 87.7067 51.0991 89.0254 51.0991Z" fill="#24285B"/>
<path d="M96.3877 51.0991C97.8163 51.0991 98.9745 50.0256 98.9745 48.7014C98.9745 47.3772 97.8163 46.3037 96.3877 46.3037C94.959 46.3037 93.8009 47.3772 93.8009 48.7014C93.8009 50.0256 94.959 51.0991 96.3877 51.0991Z" fill="#5354D1"/>
<path d="M103.352 51.0991C104.671 51.0991 105.74 50.0256 105.74 48.7014C105.74 47.3772 104.671 46.3037 103.352 46.3037C102.033 46.3037 100.964 47.3772 100.964 48.7014C100.964 50.0256 102.033 51.0991 103.352 51.0991Z" fill="#37D5C7"/>
<rect opacity="0.5" x="176.892" y="73.6711" width="17.5292" height="17.5292" rx="3.62674" fill="#5354D1"/>
<rect opacity="0.5" x="108.837" y="94.2937" width="85.5839" height="7.73348" rx="3.62674" fill="#5354D1"/>
<rect opacity="0.5" x="108.837" y="105.121" width="85.5839" height="7.73348" rx="3.62674" fill="#5354D1"/>
<rect opacity="0.5" x="154.207" y="73.6711" width="17.5292" height="17.5292" rx="3.62674" fill="#5354D1"/>
<rect opacity="0.5" x="131.522" y="73.6711" width="17.5292" height="17.5292" rx="3.62674" fill="#5354D1"/>
<rect opacity="0.5" x="108.837" y="73.6711" width="17.5292" height="17.5292" rx="3.62674" fill="#5354D1"/>
<g filter="url(#filter1_d_238_7837)">
<path d="M161.484 58.7197H55.6741C51.4359 58.7197 48.0001 62.1555 48.0001 66.3938V151.16C48.0001 155.399 51.4358 158.834 55.6741 158.834H161.484C165.722 158.834 169.158 155.399 169.158 151.16V66.3938C169.158 62.1555 165.722 58.7197 161.484 58.7197Z" fill="white"/>
</g>
<path d="M128.347 131.415H89.4487C88.04 131.415 86.898 132.557 86.898 133.965V142.255C86.898 143.664 88.04 144.806 89.4487 144.806H128.347C129.755 144.806 130.897 143.664 130.897 142.255V133.965C130.897 132.557 129.755 131.415 128.347 131.415Z" fill="#37D3C6"/>
<path opacity="0.6" d="M92.8412 108.433V106.436H94.2185C94.5782 106.436 94.8996 106.386 95.1827 106.287C95.4735 106.18 95.7184 106.03 95.9173 105.839C96.1163 105.64 96.2693 105.403 96.3764 105.127C96.4836 104.844 96.5371 104.527 96.5371 104.175C96.5371 103.807 96.4836 103.486 96.3764 103.211C96.2693 102.927 96.1163 102.694 95.9173 102.51C95.7184 102.319 95.4735 102.178 95.1827 102.086C94.8996 101.986 94.5782 101.937 94.2185 101.937H92.8412V99.9393H94.1267C94.8843 99.9393 95.5462 100.046 96.1124 100.261C96.6863 100.475 97.1646 100.773 97.5472 101.156C97.9298 101.531 98.2168 101.967 98.4081 102.464C98.5994 102.962 98.695 103.49 98.695 104.048V104.301C98.695 104.814 98.5994 105.319 98.4081 105.816C98.2168 106.306 97.9298 106.75 97.5472 107.148C97.1646 107.538 96.6863 107.852 96.1124 108.089C95.5462 108.318 94.8843 108.433 94.1267 108.433H92.8412ZM90.9358 108.433V99.9393H93.0707V108.433H90.9358ZM99.8695 108.387V100.008H101.936V108.387H99.8695ZM101.706 108.387V106.643H105.241V108.387H101.706ZM101.706 105.001V103.256H105V105.001H101.706ZM101.706 101.753V100.008H105.172V101.753H101.706ZM106.662 108.387V100.008H109.624L111.345 104.427H111.575L113.285 100.008H116.304V108.387H114.192V101.236L114.525 101.259L112.367 106.7H110.427L108.258 101.259L108.613 101.236V108.387H106.662ZM122.115 108.617C121.35 108.617 120.684 108.487 120.118 108.227C119.552 107.959 119.081 107.611 118.706 107.182C118.331 106.746 118.052 106.275 117.868 105.77C117.684 105.265 117.593 104.775 117.593 104.301V104.048C117.593 103.52 117.688 103.004 117.88 102.499C118.071 101.986 118.358 101.523 118.74 101.11C119.123 100.697 119.594 100.368 120.152 100.123C120.718 99.8781 121.373 99.7557 122.115 99.7557C122.85 99.7557 123.496 99.8781 124.055 100.123C124.621 100.368 125.095 100.697 125.478 101.11C125.861 101.523 126.148 101.986 126.339 102.499C126.538 103.004 126.637 103.52 126.637 104.048V104.301C126.637 104.775 126.542 105.265 126.35 105.77C126.167 106.275 125.887 106.746 125.512 107.182C125.138 107.611 124.667 107.959 124.101 108.227C123.534 108.487 122.873 108.617 122.115 108.617ZM122.115 106.62C122.482 106.62 122.811 106.558 123.102 106.436C123.393 106.313 123.642 106.141 123.848 105.919C124.055 105.698 124.212 105.441 124.319 105.15C124.426 104.852 124.479 104.531 124.479 104.186C124.479 103.819 124.422 103.486 124.307 103.188C124.2 102.889 124.043 102.633 123.837 102.419C123.63 102.204 123.381 102.04 123.091 101.925C122.8 101.81 122.475 101.753 122.115 101.753C121.748 101.753 121.419 101.81 121.128 101.925C120.837 102.04 120.588 102.204 120.382 102.419C120.175 102.633 120.018 102.889 119.911 103.188C119.804 103.486 119.75 103.819 119.75 104.186C119.75 104.531 119.804 104.852 119.911 105.15C120.018 105.441 120.175 105.698 120.382 105.919C120.588 106.141 120.837 106.313 121.128 106.436C121.419 106.558 121.748 106.62 122.115 106.62Z" fill="#5354D1"/>
<path d="M59.7594 70.6635C60.7791 70.6635 61.6058 69.839 61.6058 68.822C61.6058 67.805 60.7791 66.9806 59.7594 66.9806C58.7396 66.9806 57.913 67.805 57.913 68.822C57.913 69.839 58.7396 70.6635 59.7594 70.6635Z" fill="#24285B"/>
<path d="M65.5038 70.6635C66.5236 70.6635 67.3503 69.839 67.3503 68.822C67.3503 67.805 66.5236 66.9806 65.5038 66.9806C64.4841 66.9806 63.6574 67.805 63.6574 68.822C63.6574 69.839 64.4841 70.6635 65.5038 70.6635Z" fill="#5354D1"/>
<path d="M70.838 70.6635C71.8578 70.6635 72.6844 69.839 72.6844 68.822C72.6844 67.805 71.8578 66.9806 70.838 66.9806C69.8183 66.9806 68.9916 67.805 68.9916 68.822C68.9916 69.839 69.8183 70.6635 70.838 70.6635Z" fill="#C1A1FD"/>
<g filter="url(#filter2_d_238_7837)">
<path d="M224.059 33.457H192.623C191.053 33.457 189.781 34.7295 189.781 36.2992V96.6431C189.781 98.2128 191.053 99.4853 192.623 99.4853H224.059C225.629 99.4853 226.901 98.2128 226.901 96.6431V36.2992C226.901 34.7295 225.629 33.457 224.059 33.457Z" fill="#5153CC"/>
<path d="M222.464 38.8275H194.218C193.433 38.8275 192.797 39.4638 192.797 40.2486V86.8036C192.797 87.5884 193.433 88.2246 194.218 88.2246H222.464C223.248 88.2246 223.885 87.5884 223.885 86.8035V40.2486C223.885 39.4638 223.248 38.8275 222.464 38.8275Z" fill="white"/>
<path d="M218.724 73.8243H197.411C196.626 73.8243 195.99 74.4606 195.99 75.2454V79.8701C195.99 80.6549 196.626 81.2912 197.411 81.2912H218.724C219.509 81.2912 220.145 80.6549 220.145 79.8701V75.2454C220.145 74.4606 219.509 73.8243 218.724 73.8243Z" fill="#37D3C6"/>
<path d="M217.386 48.9238H199.296C198.597 48.9238 198.03 49.4909 198.03 50.1903V61.8936C198.03 62.5931 198.597 63.1601 199.296 63.1601H217.386C218.085 63.1601 218.652 62.5931 218.652 61.8936V50.1903C218.652 49.4909 218.085 48.9238 217.386 48.9238Z" fill="white"/>
<path d="M205.056 60.3841C204.948 60.3843 204.844 60.3481 204.759 60.2812L201.667 57.8265C201.611 57.7811 201.567 57.7239 201.536 57.659C201.505 57.5941 201.489 57.5231 201.489 57.4512C201.489 57.3793 201.505 57.3083 201.536 57.2434C201.567 57.1785 201.611 57.1212 201.667 57.0759L204.759 54.5739C204.858 54.4928 204.986 54.4546 205.113 54.4676C205.24 54.4806 205.357 54.5439 205.438 54.6434C205.518 54.7429 205.556 54.8706 205.543 54.9983C205.53 55.1261 205.468 55.2434 205.368 55.3245L202.744 57.4456L205.366 59.5278C205.443 59.5899 205.499 59.6746 205.526 59.77C205.554 59.8655 205.551 59.9671 205.519 60.061C205.486 60.1548 205.425 60.2362 205.345 60.2941C205.265 60.352 205.168 60.3834 205.069 60.3841H205.056Z" fill="#535CD0"/>
<path d="M210.653 60.3841C210.553 60.3863 210.455 60.3566 210.372 60.2995C210.29 60.2423 210.227 60.1604 210.194 60.0655C210.161 59.9707 210.158 59.8676 210.186 59.7711C210.214 59.6745 210.272 59.5894 210.352 59.5278L212.973 57.4456L210.352 55.3245C210.253 55.2445 210.19 55.1285 210.177 55.0021C210.164 54.8757 210.201 54.7491 210.281 54.6504C210.361 54.5516 210.476 54.4886 210.602 54.4753C210.728 54.462 210.854 54.4995 210.952 54.5795L214.042 57.0814C214.1 57.1266 214.146 57.1844 214.178 57.2504C214.211 57.3164 214.227 57.3888 214.227 57.4623C214.226 57.5345 214.209 57.6055 214.178 57.6704C214.146 57.7352 214.101 57.7923 214.045 57.8376L210.952 60.2923C210.866 60.3564 210.761 60.3888 210.653 60.3841Z" fill="#535CD0"/>
<path d="M206.556 60.3839C206.488 60.3842 206.421 60.369 206.36 60.3395C206.302 60.3137 206.251 60.2767 206.208 60.2308C206.165 60.1849 206.132 60.1309 206.11 60.0719C206.088 60.013 206.078 59.9502 206.08 59.8873C206.083 59.8245 206.098 59.7627 206.124 59.7056L208.375 54.7517C208.399 54.6908 208.435 54.6353 208.481 54.5888C208.526 54.5423 208.581 54.5057 208.642 54.4811C208.702 54.4566 208.767 54.4448 208.832 54.4463C208.897 54.4478 208.961 54.4627 209.021 54.4899C209.08 54.5172 209.133 54.5564 209.177 54.605C209.22 54.6536 209.254 54.7106 209.275 54.7726C209.295 54.8346 209.304 54.9002 209.298 54.9654C209.293 55.0307 209.275 55.0942 209.244 55.152L206.991 60.1032C206.953 60.1868 206.891 60.2577 206.814 60.3075C206.737 60.3572 206.648 60.3838 206.556 60.3839Z" fill="#535CD0"/>
</g>
</g>
<path d="M111.316 204.072V201.696H114.034C114.718 201.696 115.324 201.594 115.852 201.39C116.392 201.174 116.848 200.874 117.22 200.49C117.592 200.106 117.874 199.656 118.066 199.14C118.27 198.612 118.372 198.03 118.372 197.394C118.372 196.734 118.27 196.146 118.066 195.63C117.874 195.102 117.592 194.652 117.22 194.28C116.848 193.908 116.392 193.626 115.852 193.434C115.324 193.242 114.718 193.146 114.034 193.146H111.316V190.77H113.872C115.06 190.77 116.098 190.944 116.986 191.292C117.874 191.64 118.612 192.12 119.2 192.732C119.788 193.332 120.226 194.022 120.514 194.802C120.814 195.57 120.964 196.368 120.964 197.196V197.592C120.964 198.384 120.814 199.164 120.514 199.932C120.226 200.7 119.788 201.396 119.2 202.02C118.612 202.644 117.874 203.142 116.986 203.514C116.098 203.886 115.06 204.072 113.872 204.072H111.316ZM109.12 204.072V190.77H111.676V204.072H109.12ZM127.429 204.342C126.589 204.342 125.851 204.198 125.215 203.91C124.591 203.622 124.069 203.238 123.649 202.758C123.241 202.266 122.929 201.72 122.713 201.12C122.509 200.52 122.407 199.908 122.407 199.284V198.942C122.407 198.294 122.509 197.67 122.713 197.07C122.929 196.458 123.241 195.918 123.649 195.45C124.069 194.97 124.585 194.592 125.197 194.316C125.809 194.028 126.517 193.884 127.321 193.884C128.377 193.884 129.259 194.118 129.967 194.586C130.687 195.042 131.227 195.648 131.587 196.404C131.947 197.148 132.127 197.952 132.127 198.816V199.716H123.469V198.186H130.561L129.787 198.942C129.787 198.318 129.697 197.784 129.517 197.34C129.337 196.896 129.061 196.554 128.689 196.314C128.329 196.074 127.873 195.954 127.321 195.954C126.769 195.954 126.301 196.08 125.917 196.332C125.533 196.584 125.239 196.95 125.035 197.43C124.843 197.898 124.747 198.462 124.747 199.122C124.747 199.734 124.843 200.28 125.035 200.76C125.227 201.228 125.521 201.6 125.917 201.876C126.313 202.14 126.817 202.272 127.429 202.272C128.041 202.272 128.539 202.152 128.923 201.912C129.307 201.66 129.553 201.354 129.661 200.994H131.965C131.821 201.666 131.545 202.254 131.137 202.758C130.729 203.262 130.207 203.652 129.571 203.928C128.947 204.204 128.233 204.342 127.429 204.342ZM134.217 204V194.226H136.197V198.42H136.017C136.017 197.436 136.143 196.614 136.395 195.954C136.647 195.282 137.019 194.778 137.511 194.442C138.015 194.094 138.639 193.92 139.383 193.92H139.491C140.247 193.92 140.871 194.094 141.363 194.442C141.867 194.778 142.239 195.282 142.479 195.954C142.731 196.614 142.857 197.436 142.857 198.42H142.227C142.227 197.436 142.353 196.614 142.605 195.954C142.869 195.282 143.247 194.778 143.739 194.442C144.243 194.094 144.867 193.92 145.611 193.92H145.719C146.475 193.92 147.105 194.094 147.609 194.442C148.113 194.778 148.491 195.282 148.743 195.954C149.007 196.614 149.139 197.436 149.139 198.42V204H146.637V198.186C146.637 197.574 146.481 197.088 146.169 196.728C145.857 196.356 145.413 196.17 144.837 196.17C144.261 196.17 143.799 196.362 143.451 196.746C143.103 197.118 142.929 197.622 142.929 198.258V204H140.427V198.186C140.427 197.574 140.271 197.088 139.959 196.728C139.647 196.356 139.203 196.17 138.627 196.17C138.051 196.17 137.589 196.362 137.241 196.746C136.893 197.118 136.719 197.622 136.719 198.258V204H134.217ZM156.511 204.342C155.647 204.342 154.885 204.204 154.225 203.928C153.565 203.652 153.007 203.28 152.551 202.812C152.095 202.332 151.747 201.792 151.507 201.192C151.279 200.592 151.165 199.968 151.165 199.32V198.942C151.165 198.27 151.285 197.634 151.525 197.034C151.777 196.422 152.131 195.882 152.587 195.414C153.055 194.934 153.619 194.562 154.279 194.298C154.939 194.022 155.683 193.884 156.511 193.884C157.339 193.884 158.083 194.022 158.743 194.298C159.403 194.562 159.961 194.934 160.417 195.414C160.885 195.882 161.239 196.422 161.479 197.034C161.719 197.634 161.839 198.27 161.839 198.942V199.32C161.839 199.968 161.719 200.592 161.479 201.192C161.251 201.792 160.909 202.332 160.453 202.812C159.997 203.28 159.439 203.652 158.779 203.928C158.119 204.204 157.363 204.342 156.511 204.342ZM156.511 202.2C157.123 202.2 157.639 202.068 158.059 201.804C158.479 201.528 158.797 201.162 159.013 200.706C159.229 200.238 159.337 199.71 159.337 199.122C159.337 198.522 159.223 197.994 158.995 197.538C158.779 197.07 158.455 196.704 158.023 196.44C157.603 196.164 157.099 196.026 156.511 196.026C155.923 196.026 155.413 196.164 154.981 196.44C154.561 196.704 154.237 197.07 154.009 197.538C153.781 197.994 153.667 198.522 153.667 199.122C153.667 199.71 153.775 200.238 153.991 200.706C154.219 201.162 154.543 201.528 154.963 201.804C155.383 202.068 155.899 202.2 156.511 202.2ZM167.575 204.306C166.231 204.306 165.175 204.024 164.407 203.46C163.651 202.884 163.255 202.092 163.219 201.084H165.469C165.505 201.42 165.691 201.726 166.027 202.002C166.363 202.278 166.891 202.416 167.611 202.416C168.211 202.416 168.685 202.308 169.033 202.092C169.393 201.876 169.573 201.582 169.573 201.21C169.573 200.886 169.435 200.628 169.159 200.436C168.895 200.244 168.439 200.118 167.791 200.058L166.927 199.968C165.835 199.848 164.995 199.536 164.407 199.032C163.819 198.528 163.525 197.856 163.525 197.016C163.525 196.344 163.693 195.78 164.029 195.324C164.365 194.868 164.827 194.526 165.415 194.298C166.015 194.058 166.699 193.938 167.467 193.938C168.667 193.938 169.639 194.202 170.383 194.73C171.127 195.258 171.517 196.032 171.553 197.052H169.303C169.279 196.716 169.111 196.428 168.799 196.188C168.487 195.948 168.037 195.828 167.449 195.828C166.921 195.828 166.513 195.93 166.225 196.134C165.937 196.338 165.793 196.602 165.793 196.926C165.793 197.238 165.907 197.478 166.135 197.646C166.375 197.814 166.759 197.928 167.287 197.988L168.151 198.078C169.303 198.198 170.203 198.516 170.851 199.032C171.511 199.548 171.841 200.244 171.841 201.12C171.841 201.768 171.661 202.332 171.301 202.812C170.953 203.28 170.461 203.646 169.825 203.91C169.189 204.174 168.439 204.306 167.575 204.306Z" fill="#111111"/>
<rect x="0.5" y="0.5" width="279" height="224" rx="11.5" stroke="#E6E8EB"/>
<defs>
<filter id="filter0_d_238_7837" x="51.4029" y="34.9006" width="181.892" height="144.771" filterUnits="userSpaceOnUse" color-interpolation-filters="sRGB">
<feFlood flood-opacity="0" result="BackgroundImageFix"/>
<feColorMatrix in="SourceAlpha" type="matrix" values="0 0 0 0 0 0 0 0 0 0 0 0 0 0 0 0 0 0 127 0" result="hardAlpha"/>
<feOffset dy="12.9923"/>
<feGaussianBlur stdDeviation="8.35216"/>
<feColorMatrix type="matrix" values="0 0 0 0 0.027451 0 0 0 0 0.054902 0 0 0 0 0.152941 0 0 0 0.05 0"/>
<feBlend mode="normal" in2="BackgroundImageFix" result="effect1_dropShadow_238_7837"/>
<feBlend mode="normal" in="SourceGraphic" in2="effect1_dropShadow_238_7837" result="shape"/>
</filter>
<filter id="filter1_d_238_7837" x="30.7334" y="54.8827" width="155.691" height="134.648" filterUnits="userSpaceOnUse" color-interpolation-filters="sRGB">
<feFlood flood-opacity="0" result="BackgroundImageFix"/>
<feColorMatrix in="SourceAlpha" type="matrix" values="0 0 0 0 0 0 0 0 0 0 0 0 0 0 0 0 0 0 127 0" result="hardAlpha"/>
<feOffset dy="13.4296"/>
<feGaussianBlur stdDeviation="8.63331"/>
<feColorMatrix type="matrix" values="0 0 0 0 0.027451 0 0 0 0 0.054902 0 0 0 0 0.152941 0 0 0 0.05 0"/>
<feBlend mode="normal" in2="BackgroundImageFix" result="effect1_dropShadow_238_7837"/>
<feBlend mode="normal" in="SourceGraphic" in2="effect1_dropShadow_238_7837" result="shape"/>
</filter>
<filter id="filter2_d_238_7837" x="172.514" y="29.62" width="71.654" height="100.561" filterUnits="userSpaceOnUse" color-interpolation-filters="sRGB">
<feFlood flood-opacity="0" result="BackgroundImageFix"/>
<feColorMatrix in="SourceAlpha" type="matrix" values="0 0 0 0 0 0 0 0 0 0 0 0 0 0 0 0 0 0 127 0" result="hardAlpha"/>
<feOffset dy="13.4296"/>
<feGaussianBlur stdDeviation="8.63331"/>
<feColorMatrix type="matrix" values="0 0 0 0 0.027451 0 0 0 0 0.054902 0 0 0 0 0.152941 0 0 0 0.05 0"/>
<feBlend mode="normal" in2="BackgroundImageFix" result="effect1_dropShadow_238_7837"/>
<feBlend mode="normal" in="SourceGraphic" in2="effect1_dropShadow_238_7837" result="shape"/>
</filter>
<linearGradient id="paint0_linear_238_7837" x1="275.98" y1="211.549" x2="-30.7487" y2="147.688" gradientUnits="userSpaceOnUse">
<stop stop-color="#E7DEFF"/>
<stop offset="1" stop-color="#E9F7FF"/>
</linearGradient>
<clipPath id="clip0_238_7837">
<rect x="32" y="16" width="216" height="160" rx="5.56223" fill="white"/>
</clipPath>
</defs>
</svg>
