<svg width="71" height="56" viewBox="0 0 71 56" fill="none" xmlns="http://www.w3.org/2000/svg">
<path d="M60.1045 5.39792C55.5792 3.32152 50.7265 1.79172 45.6527 0.915541C45.5603 0.898631 45.468 0.94089 45.4204 1.02541C44.7963 2.13542 44.105 3.58352 43.6209 4.72172C38.1637 3.90472 32.7345 3.90472 27.3892 4.72172C26.905 3.55822 26.1886 2.13542 25.5617 1.02541C25.5141 0.94371 25.4218 0.901451 25.3294 0.915541C20.2584 1.78892 15.4057 3.31872 10.8776 5.39792C10.8384 5.41482 10.8048 5.44302 10.7825 5.47962C1.57795 19.231 -0.943561 32.6444 0.293408 45.8915C0.299005 45.9563 0.335386 46.0183 0.385761 46.0577C6.45866 50.5175 12.3413 53.225 18.1147 55.0196C18.2071 55.0478 18.305 55.014 18.3638 54.9379C19.7295 53.0729 20.9469 51.1064 21.9907 49.0384C22.0523 48.9173 21.9935 48.7736 21.8676 48.7257C19.9366 47.9932 18.0979 47.1001 16.3292 46.0859C16.1893 46.0042 16.1781 45.8041 16.3068 45.7083C16.679 45.4294 17.0513 45.1392 17.4067 44.8462C17.471 44.7927 17.5606 44.7814 17.6362 44.8152C29.2558 50.1203 41.8354 50.1203 53.3179 44.8152C53.3935 44.7786 53.4831 44.7899 53.5502 44.8434C53.9057 45.1364 54.2779 45.4294 54.6529 45.7083C54.7816 45.8041 54.7732 46.0042 54.6333 46.0859C52.8646 47.1198 51.0259 47.9932 49.0921 48.7229C48.9662 48.7708 48.9102 48.9173 48.9718 49.0384C50.038 51.1035 51.2554 53.07 52.5959 54.9351C52.6519 55.014 52.7526 55.0478 52.845 55.0196C58.6464 53.225 64.529 50.5175 70.6019 46.0577C70.6551 46.0183 70.6887 45.9591 70.6943 45.8943C72.1747 30.5792 68.2147 17.2758 60.1968 5.48242C60.1772 5.44302 60.1437 5.41482 60.1045 5.39792ZM23.7259 37.8254C20.2276 37.8254 17.3451 34.6137 17.3451 30.6694C17.3451 26.7251 20.1717 23.5134 23.7259 23.5134C27.308 23.5134 30.1626 26.7533 30.1066 30.6694C30.1066 34.6137 27.28 37.8254 23.7259 37.8254ZM47.3178 37.8254C43.8196 37.8254 40.9371 34.6137 40.9371 30.6694C40.9371 26.7251 43.7636 23.5134 47.3178 23.5134C50.9 23.5134 53.7545 26.7533 53.6986 30.6694C53.6986 34.6137 50.9 37.8254 47.3178 37.8254Z" fill="#5865F2"/>
</svg>
