<svg width="280" height="225" viewBox="0 0 280 225" fill="none" xmlns="http://www.w3.org/2000/svg">
<rect x="0.5" y="0.5" width="279" height="224" rx="11.5" fill="url(#paint0_linear_238_7770)" fill-opacity="0.4"/>
<g clip-path="url(#clip0_238_7770)">
<path d="M202.749 87.9707L208.073 71.3613H214.854L220.36 87.9707H215.991L211.714 74.3191L212.92 74.7742H209.916L211.145 74.3191L206.981 87.9707H202.749ZM207.095 84.1255L208.369 80.6671H214.672L215.946 84.1255H207.095ZM229.189 83.5567V79.9163H231.919C232.435 79.9163 232.882 79.8177 233.261 79.6205C233.641 79.4081 233.936 79.1123 234.149 78.7331C234.361 78.3539 234.467 77.9064 234.467 77.3907C234.467 76.8598 234.361 76.4048 234.149 76.0256C233.936 75.6464 233.641 75.3582 233.261 75.161C232.882 74.9638 232.435 74.8652 231.919 74.8652H229.189V71.2248H231.805C233.231 71.2248 234.46 71.4674 235.491 71.9528C236.538 72.4231 237.342 73.1056 237.903 74.0006C238.464 74.8955 238.745 75.9649 238.745 77.2087V77.5727C238.745 78.8014 238.464 79.8632 237.903 80.7581C237.342 81.6531 236.538 82.3432 235.491 82.8286C234.46 83.314 233.231 83.5567 231.805 83.5567H229.189ZM225.412 87.9707V71.2248H229.644V87.9707H225.412ZM244.018 87.9707V71.3613H248.25V87.9707H244.018Z" fill="#DBDDE5"/>
<g filter="url(#filter0_d_238_7770)">
<rect x="69.0791" y="52" width="139.632" height="104.724" rx="4.18896" fill="white"/>
</g>
<path d="M83.4171 66.1738C84.6572 66.1738 85.6626 65.1638 85.6626 63.9178C85.6626 62.6719 84.6572 61.6619 83.4171 61.6619C82.177 61.6619 81.1716 62.6719 81.1716 63.9178C81.1716 65.1638 82.177 66.1738 83.4171 66.1738Z" fill="#24285B"/>
<path d="M90.3407 66.1738C91.6842 66.1738 92.7733 65.1638 92.7733 63.9178C92.7733 62.6719 91.6842 61.6619 90.3407 61.6619C88.9972 61.6619 87.9081 62.6719 87.9081 63.9178C87.9081 65.1638 88.9972 66.1738 90.3407 66.1738Z" fill="#5354D1"/>
<path d="M96.89 66.1738C98.1301 66.1738 99.1355 65.1638 99.1355 63.9178C99.1355 62.6719 98.1301 61.6619 96.89 61.6619C95.6499 61.6619 94.6445 62.6719 94.6445 63.9178C94.6445 65.1638 95.6499 66.1738 96.89 66.1738Z" fill="#37D5C7"/>
<path d="M169.481 100.61C167.517 100.254 165.652 99.484 164.012 98.3523C163.477 98.9094 162.932 99.4538 162.414 100.034C162.15 100.326 161.964 100.295 161.702 100.034C160.827 99.1497 159.94 98.2774 159.043 97.4169C158.783 97.1668 158.821 97.007 159.06 96.7758C159.616 96.2376 160.148 95.6743 160.66 95.153C160.203 94.2659 159.692 93.3956 159.299 92.477C159 91.7177 158.759 90.937 158.578 90.1416C158.502 89.8452 158.388 89.7737 158.109 89.78C157.435 89.7969 156.76 89.78 156.084 89.7927C155.759 89.7927 155.647 89.6707 155.651 89.3533C155.662 88.0921 155.662 86.8371 155.651 85.5885C155.651 85.2627 155.778 85.1513 156.095 85.1681C156.784 85.1849 157.475 85.187 158.164 85.1681C158.293 85.1681 158.508 85.0356 158.529 84.9347C158.913 83.0998 159.668 81.3618 160.748 79.8267C160.184 79.2738 159.633 78.7126 159.058 78.1807C158.798 77.9432 158.804 77.7856 159.058 77.5501C159.965 76.6771 160.862 75.7942 161.748 74.9015C161.991 74.6556 162.171 74.6598 162.395 74.9015C162.921 75.4712 163.466 76.0219 164.007 76.5832C164.43 76.333 164.768 76.1144 165.121 75.9147C166.355 75.2075 167.698 74.7102 169.096 74.4432C169.394 74.3865 169.519 74.2814 169.496 73.9619C169.466 73.306 169.496 72.6481 169.483 71.9922C169.483 71.6727 169.591 71.555 169.921 71.5592C171.189 71.5718 172.474 71.5739 173.748 71.5592C174.105 71.5592 174.209 71.6937 174.202 72.0259C174.188 72.7826 174.202 73.5415 174.202 74.3508C176.165 74.7048 178.027 75.4748 179.663 76.6084C180.213 76.0366 180.76 75.4901 181.282 74.9267C181.534 74.6535 181.716 74.6724 181.967 74.9267C182.842 75.8096 183.723 76.6862 184.624 77.5459C184.896 77.8066 184.869 77.9663 184.611 78.2144C184.059 78.7357 183.535 79.2864 182.967 79.8603C183.108 80.0852 183.265 80.327 183.415 80.5687C184.229 81.8572 184.802 83.2815 185.105 84.7729C185.179 85.1365 185.327 85.2059 185.659 85.1933C186.293 85.1702 186.927 85.1933 187.551 85.1807C187.902 85.1702 188.049 85.2774 188.045 85.6537C188.026 86.8771 188.026 88.1047 188.045 89.3302C188.045 89.6875 187.935 89.8284 187.568 89.8179C186.879 89.7969 186.188 89.799 185.501 89.8179C185.426 89.8299 185.356 89.8603 185.296 89.9061C185.236 89.952 185.189 90.012 185.158 90.0806C184.778 91.8932 184.031 93.6098 182.962 95.1256C183.512 95.6764 184.042 96.2355 184.607 96.7611C184.884 97.0196 184.909 97.1815 184.622 97.4632C183.719 98.3187 182.838 99.1953 181.961 100.078C181.722 100.318 181.551 100.339 181.312 100.078C180.788 99.5085 180.24 98.9598 179.682 98.3818C178.036 99.5029 176.167 100.261 174.202 100.606C174.202 101.396 174.202 102.153 174.202 102.918C174.202 103.265 174.114 103.418 173.733 103.412C172.465 103.395 171.203 103.395 169.948 103.412C169.561 103.412 169.473 103.259 169.481 102.918C169.494 102.153 169.481 101.396 169.481 100.61ZM171.878 79.6501C167.488 79.6501 163.921 83.1143 163.906 87.4089C163.879 88.9746 164.32 90.5129 165.174 91.8284C166.028 93.1439 167.256 94.1771 168.702 94.7966C170.148 95.4162 171.746 95.5941 173.294 95.3078C174.842 95.0214 176.269 94.2838 177.394 93.1886C178.52 92.0934 179.292 90.6902 179.613 89.1573C179.935 87.6243 179.791 86.031 179.199 84.5798C178.608 83.1285 177.596 81.885 176.292 81.0072C174.989 80.1294 173.452 79.657 171.878 79.6501Z" fill="#9898E3"/>
<path d="M169.056 114.03H117.671V119.618H169.056V114.03Z" fill="#5354D1"/>
<path d="M193.072 130.236H132.193V136.942H193.072V130.236Z" fill="#5354D1"/>
<path d="M121.581 130.236H98.1226V136.942H121.581V130.236Z" fill="#37D5C7"/>
<path d="M107.059 114.03H83.6008V119.618H107.059V114.03Z" fill="#37D5C7"/>
<path d="M141.129 84.412H98.1226V90.0003H141.129V84.412Z" fill="#37D5C7"/>
<path d="M121.581 97.824H98.1226V103.412H121.581V97.824Z" fill="#37D5C7"/>
<g filter="url(#filter1_d_238_7770)">
<path d="M79.1734 119.192H38.8249C37.2648 119.192 36 120.457 36 122.017V148.138C36 149.698 37.2648 150.962 38.8249 150.962H79.1734C80.7335 150.962 81.9983 149.698 81.9983 148.138V122.017C81.9983 120.457 80.7335 119.192 79.1734 119.192Z" fill="white"/>
</g>
<path d="M73.3735 137.67C73.3735 141.324 70.343 144.289 66.6072 144.289H50.2163C47.3922 144.289 45.1038 142.048 45.1038 139.286C45.1038 136.527 47.3922 134.287 50.2163 134.287C50.4227 134.287 50.6234 134.304 50.8227 134.325C50.7693 133.971 50.7423 133.614 50.7422 133.256C50.7422 129.196 54.1077 125.903 58.2619 125.903C61.6642 125.903 64.5364 128.112 65.4651 131.146C65.8431 131.084 66.2255 131.053 66.6086 131.053C70.343 131.053 73.3735 134.013 73.3735 137.67Z" fill="#535CD0"/>
</g>
<path d="M14.12 204V190.86H16.622V204H14.12ZM16.262 204V201.84H22.22V204H16.262ZM16.262 198.402V196.242H21.752V198.402H16.262ZM16.262 193.02V190.86H22.076V193.02H16.262ZM23.5287 204L26.7147 198.78L26.6607 199.194L23.6547 194.226H26.3727L28.3347 197.664H28.6047L30.4587 194.226H33.0147L30.1707 199.176L30.2247 198.816L33.5907 204H30.8727L28.5507 200.31H28.2807L26.0847 204H23.5287ZM35.2091 207.6V194.226H37.1891V198.438L36.8831 198.42C36.9311 197.424 37.1351 196.59 37.4951 195.918C37.8671 195.246 38.3591 194.748 38.9711 194.424C39.5831 194.088 40.2671 193.92 41.0231 193.92C41.7191 193.92 42.3431 194.046 42.8951 194.298C43.4591 194.55 43.9391 194.904 44.3351 195.36C44.7431 195.816 45.0551 196.35 45.2711 196.962C45.4871 197.562 45.5951 198.21 45.5951 198.906V199.284C45.5951 199.992 45.4871 200.652 45.2711 201.264C45.0671 201.864 44.7611 202.398 44.3531 202.866C43.9571 203.322 43.4771 203.682 42.9131 203.946C42.3491 204.198 41.7191 204.324 41.0231 204.324C40.2911 204.324 39.6191 204.174 39.0071 203.874C38.4071 203.562 37.9211 203.088 37.5491 202.452C37.1771 201.804 36.9671 200.97 36.9191 199.95L37.7111 201.156V207.6H35.2091ZM40.3931 202.218C40.9331 202.218 41.4011 202.086 41.7971 201.822C42.2051 201.558 42.5231 201.192 42.7511 200.724C42.9791 200.244 43.0931 199.704 43.0931 199.104C43.0931 198.48 42.9791 197.94 42.7511 197.484C42.5231 197.028 42.2051 196.674 41.7971 196.422C41.4011 196.158 40.9331 196.026 40.3931 196.026C39.9011 196.026 39.4451 196.134 39.0251 196.35C38.6171 196.566 38.2811 196.884 38.0171 197.304C37.7651 197.724 37.6391 198.228 37.6391 198.816V199.536C37.6391 200.1 37.7711 200.58 38.0351 200.976C38.2991 201.372 38.6411 201.678 39.0611 201.894C39.4811 202.11 39.9251 202.218 40.3931 202.218ZM47.921 204V190.86H50.423V204H47.921ZM46.697 192.732V190.86H50.423V192.732H46.697ZM57.9774 204.342C57.1134 204.342 56.3514 204.204 55.6914 203.928C55.0314 203.652 54.4734 203.28 54.0174 202.812C53.5614 202.332 53.2134 201.792 52.9734 201.192C52.7454 200.592 52.6314 199.968 52.6314 199.32V198.942C52.6314 198.27 52.7514 197.634 52.9914 197.034C53.2434 196.422 53.5974 195.882 54.0534 195.414C54.5214 194.934 55.0854 194.562 55.7454 194.298C56.4054 194.022 57.1494 193.884 57.9774 193.884C58.8054 193.884 59.5494 194.022 60.2094 194.298C60.8694 194.562 61.4274 194.934 61.8834 195.414C62.3514 195.882 62.7054 196.422 62.9454 197.034C63.1854 197.634 63.3054 198.27 63.3054 198.942V199.32C63.3054 199.968 63.1854 200.592 62.9454 201.192C62.7174 201.792 62.3754 202.332 61.9194 202.812C61.4634 203.28 60.9054 203.652 60.2454 203.928C59.5854 204.204 58.8294 204.342 57.9774 204.342ZM57.9774 202.2C58.5894 202.2 59.1054 202.068 59.5254 201.804C59.9454 201.528 60.2634 201.162 60.4794 200.706C60.6954 200.238 60.8034 199.71 60.8034 199.122C60.8034 198.522 60.6894 197.994 60.4614 197.538C60.2454 197.07 59.9214 196.704 59.4894 196.44C59.0694 196.164 58.5654 196.026 57.9774 196.026C57.3894 196.026 56.8794 196.164 56.4474 196.44C56.0274 196.704 55.7034 197.07 55.4754 197.538C55.2474 197.994 55.1334 198.522 55.1334 199.122C55.1334 199.71 55.2414 200.238 55.4574 200.706C55.6854 201.162 56.0094 201.528 56.4294 201.804C56.8494 202.068 57.3654 202.2 57.9774 202.2ZM65.4962 204V194.226H67.4762V198.366H67.4222C67.4222 196.962 67.7222 195.9 68.3222 195.18C68.9222 194.46 69.8042 194.1 70.9682 194.1H71.3282V196.278H70.6442C69.8042 196.278 69.1502 196.506 68.6822 196.962C68.2262 197.406 67.9982 198.054 67.9982 198.906V204H65.4962ZM77.3058 204.342C76.4658 204.342 75.7278 204.198 75.0918 203.91C74.4678 203.622 73.9458 203.238 73.5258 202.758C73.1178 202.266 72.8058 201.72 72.5898 201.12C72.3858 200.52 72.2838 199.908 72.2838 199.284V198.942C72.2838 198.294 72.3858 197.67 72.5898 197.07C72.8058 196.458 73.1178 195.918 73.5258 195.45C73.9458 194.97 74.4618 194.592 75.0738 194.316C75.6858 194.028 76.3938 193.884 77.1978 193.884C78.2538 193.884 79.1358 194.118 79.8438 194.586C80.5638 195.042 81.1038 195.648 81.4638 196.404C81.8238 197.148 82.0038 197.952 82.0038 198.816V199.716H73.3458V198.186H80.4378L79.6638 198.942C79.6638 198.318 79.5738 197.784 79.3938 197.34C79.2138 196.896 78.9378 196.554 78.5658 196.314C78.2058 196.074 77.7498 195.954 77.1978 195.954C76.6458 195.954 76.1778 196.08 75.7938 196.332C75.4098 196.584 75.1158 196.95 74.9118 197.43C74.7198 197.898 74.6238 198.462 74.6238 199.122C74.6238 199.734 74.7198 200.28 74.9118 200.76C75.1038 201.228 75.3978 201.6 75.7938 201.876C76.1898 202.14 76.6938 202.272 77.3058 202.272C77.9178 202.272 78.4158 202.152 78.7998 201.912C79.1838 201.66 79.4298 201.354 79.5378 200.994H81.8418C81.6978 201.666 81.4218 202.254 81.0138 202.758C80.6058 203.262 80.0838 203.652 79.4478 203.928C78.8238 204.204 78.1098 204.342 77.3058 204.342ZM86.8806 204L91.3626 190.86H95.5386L100.147 204H97.5186L93.6126 192.606L94.5306 193.002H92.2806L93.2166 192.606L89.4366 204H86.8806ZM90.0126 200.508L90.8226 198.348H96.1506L96.9426 200.508H90.0126ZM104.295 199.968V197.754H106.851C107.367 197.754 107.799 197.652 108.147 197.448C108.507 197.244 108.777 196.962 108.957 196.602C109.149 196.242 109.245 195.828 109.245 195.36C109.245 194.892 109.149 194.478 108.957 194.118C108.777 193.758 108.507 193.482 108.147 193.29C107.799 193.086 107.367 192.984 106.851 192.984H104.295V190.77H106.635C107.739 190.77 108.675 190.95 109.443 191.31C110.223 191.67 110.817 192.186 111.225 192.858C111.633 193.518 111.837 194.304 111.837 195.216V195.504C111.837 196.416 111.633 197.208 111.225 197.88C110.817 198.54 110.223 199.056 109.443 199.428C108.675 199.788 107.739 199.968 106.635 199.968H104.295ZM102.099 204V190.77H104.655V204H102.099ZM113.982 204V190.86H116.538V204H113.982ZM125.898 204.072V201.696H128.616C129.3 201.696 129.906 201.594 130.434 201.39C130.974 201.174 131.43 200.874 131.802 200.49C132.174 200.106 132.456 199.656 132.648 199.14C132.852 198.612 132.954 198.03 132.954 197.394C132.954 196.734 132.852 196.146 132.648 195.63C132.456 195.102 132.174 194.652 131.802 194.28C131.43 193.908 130.974 193.626 130.434 193.434C129.906 193.242 129.3 193.146 128.616 193.146H125.898V190.77H128.454C129.642 190.77 130.68 190.944 131.568 191.292C132.456 191.64 133.194 192.12 133.782 192.732C134.37 193.332 134.808 194.022 135.096 194.802C135.396 195.57 135.546 196.368 135.546 197.196V197.592C135.546 198.384 135.396 199.164 135.096 199.932C134.808 200.7 134.37 201.396 133.782 202.02C133.194 202.644 132.456 203.142 131.568 203.514C130.68 203.886 129.642 204.072 128.454 204.072H125.898ZM123.702 204.072V190.77H126.258V204.072H123.702ZM142.335 204.342C141.471 204.342 140.709 204.204 140.049 203.928C139.389 203.652 138.831 203.28 138.375 202.812C137.919 202.332 137.571 201.792 137.331 201.192C137.103 200.592 136.989 199.968 136.989 199.32V198.942C136.989 198.27 137.109 197.634 137.349 197.034C137.601 196.422 137.955 195.882 138.411 195.414C138.879 194.934 139.443 194.562 140.103 194.298C140.763 194.022 141.507 193.884 142.335 193.884C143.163 193.884 143.907 194.022 144.567 194.298C145.227 194.562 145.785 194.934 146.241 195.414C146.709 195.882 147.063 196.422 147.303 197.034C147.543 197.634 147.663 198.27 147.663 198.942V199.32C147.663 199.968 147.543 200.592 147.303 201.192C147.075 201.792 146.733 202.332 146.277 202.812C145.821 203.28 145.263 203.652 144.603 203.928C143.943 204.204 143.187 204.342 142.335 204.342ZM142.335 202.2C142.947 202.2 143.463 202.068 143.883 201.804C144.303 201.528 144.621 201.162 144.837 200.706C145.053 200.238 145.161 199.71 145.161 199.122C145.161 198.522 145.047 197.994 144.819 197.538C144.603 197.07 144.279 196.704 143.847 196.44C143.427 196.164 142.923 196.026 142.335 196.026C141.747 196.026 141.237 196.164 140.805 196.44C140.385 196.704 140.061 197.07 139.833 197.538C139.605 197.994 139.491 198.522 139.491 199.122C139.491 199.71 139.599 200.238 139.815 200.706C140.043 201.162 140.367 201.528 140.787 201.804C141.207 202.068 141.723 202.2 142.335 202.2ZM154.192 204.342C153.34 204.342 152.602 204.198 151.978 203.91C151.366 203.622 150.85 203.238 150.43 202.758C150.022 202.278 149.716 201.738 149.512 201.138C149.308 200.538 149.206 199.926 149.206 199.302V198.96C149.206 198.3 149.308 197.67 149.512 197.07C149.728 196.458 150.046 195.918 150.466 195.45C150.886 194.97 151.402 194.592 152.014 194.316C152.638 194.028 153.358 193.884 154.174 193.884C155.026 193.884 155.788 194.052 156.46 194.388C157.132 194.712 157.666 195.168 158.062 195.756C158.47 196.344 158.698 197.028 158.746 197.808H156.316C156.256 197.304 156.04 196.884 155.668 196.548C155.308 196.212 154.81 196.044 154.174 196.044C153.622 196.044 153.16 196.176 152.788 196.44C152.428 196.704 152.158 197.07 151.978 197.538C151.798 197.994 151.708 198.522 151.708 199.122C151.708 199.698 151.792 200.22 151.96 200.688C152.14 201.156 152.41 201.522 152.77 201.786C153.142 202.05 153.616 202.182 154.192 202.182C154.624 202.182 154.996 202.104 155.308 201.948C155.62 201.792 155.866 201.576 156.046 201.3C156.238 201.024 156.358 200.712 156.406 200.364H158.836C158.788 201.156 158.554 201.852 158.134 202.452C157.726 203.04 157.18 203.502 156.496 203.838C155.824 204.174 155.056 204.342 154.192 204.342ZM164.17 204.306C163.042 204.306 162.166 203.934 161.542 203.19C160.93 202.446 160.624 201.342 160.624 199.878V194.208H163.126V200.094C163.126 200.694 163.294 201.174 163.63 201.534C163.966 201.882 164.422 202.056 164.998 202.056C165.574 202.056 166.042 201.87 166.402 201.498C166.774 201.126 166.96 200.622 166.96 199.986V194.208H169.462V204H167.482V199.842H167.68C167.68 200.826 167.554 201.648 167.302 202.308C167.05 202.968 166.672 203.466 166.168 203.802C165.664 204.138 165.034 204.306 164.278 204.306H164.17ZM172.336 204V194.226H174.316V198.42H174.136C174.136 197.436 174.262 196.614 174.514 195.954C174.766 195.282 175.138 194.778 175.63 194.442C176.134 194.094 176.758 193.92 177.502 193.92H177.61C178.366 193.92 178.99 194.094 179.482 194.442C179.986 194.778 180.358 195.282 180.598 195.954C180.85 196.614 180.976 197.436 180.976 198.42H180.346C180.346 197.436 180.472 196.614 180.724 195.954C180.988 195.282 181.366 194.778 181.858 194.442C182.362 194.094 182.986 193.92 183.73 193.92H183.838C184.594 193.92 185.224 194.094 185.728 194.442C186.232 194.778 186.61 195.282 186.862 195.954C187.126 196.614 187.258 197.436 187.258 198.42V204H184.756V198.186C184.756 197.574 184.6 197.088 184.288 196.728C183.976 196.356 183.532 196.17 182.956 196.17C182.38 196.17 181.918 196.362 181.57 196.746C181.222 197.118 181.048 197.622 181.048 198.258V204H178.546V198.186C178.546 197.574 178.39 197.088 178.078 196.728C177.766 196.356 177.322 196.17 176.746 196.17C176.17 196.17 175.708 196.362 175.36 196.746C175.012 197.118 174.838 197.622 174.838 198.258V204H172.336ZM194.306 204.342C193.466 204.342 192.728 204.198 192.092 203.91C191.468 203.622 190.946 203.238 190.526 202.758C190.118 202.266 189.806 201.72 189.59 201.12C189.386 200.52 189.284 199.908 189.284 199.284V198.942C189.284 198.294 189.386 197.67 189.59 197.07C189.806 196.458 190.118 195.918 190.526 195.45C190.946 194.97 191.462 194.592 192.074 194.316C192.686 194.028 193.394 193.884 194.198 193.884C195.254 193.884 196.136 194.118 196.844 194.586C197.564 195.042 198.104 195.648 198.464 196.404C198.824 197.148 199.004 197.952 199.004 198.816V199.716H190.346V198.186H197.438L196.664 198.942C196.664 198.318 196.574 197.784 196.394 197.34C196.214 196.896 195.938 196.554 195.566 196.314C195.206 196.074 194.75 195.954 194.198 195.954C193.646 195.954 193.178 196.08 192.794 196.332C192.41 196.584 192.116 196.95 191.912 197.43C191.72 197.898 191.624 198.462 191.624 199.122C191.624 199.734 191.72 200.28 191.912 200.76C192.104 201.228 192.398 201.6 192.794 201.876C193.19 202.14 193.694 202.272 194.306 202.272C194.918 202.272 195.416 202.152 195.8 201.912C196.184 201.66 196.43 201.354 196.538 200.994H198.842C198.698 201.666 198.422 202.254 198.014 202.758C197.606 203.262 197.084 203.652 196.448 203.928C195.824 204.204 195.11 204.342 194.306 204.342ZM201.094 204V194.226H203.074V198.42H202.894C202.894 197.424 203.026 196.596 203.29 195.936C203.554 195.264 203.944 194.76 204.46 194.424C204.988 194.088 205.642 193.92 206.422 193.92H206.53C207.694 193.92 208.576 194.298 209.176 195.054C209.776 195.798 210.076 196.914 210.076 198.402V204H207.574V198.186C207.574 197.586 207.4 197.1 207.052 196.728C206.716 196.356 206.248 196.17 205.648 196.17C205.036 196.17 204.538 196.362 204.154 196.746C203.782 197.118 203.596 197.622 203.596 198.258V204H201.094ZM217.014 204.126C216.114 204.126 215.37 204.012 214.782 203.784C214.206 203.544 213.774 203.148 213.486 202.596C213.198 202.032 213.054 201.276 213.054 200.328L213.072 191.472H215.412L215.394 200.49C215.394 200.97 215.52 201.342 215.772 201.606C216.036 201.858 216.408 201.984 216.888 201.984H218.418V204.126H217.014ZM211.506 196.062V194.226H218.418V196.062H211.506ZM226.405 204V201.102H225.991V197.88C225.991 197.316 225.853 196.896 225.577 196.62C225.301 196.344 224.875 196.206 224.299 196.206C223.999 196.206 223.639 196.212 223.219 196.224C222.799 196.236 222.373 196.254 221.941 196.278C221.521 196.29 221.143 196.308 220.807 196.332V194.208C221.083 194.184 221.395 194.16 221.743 194.136C222.091 194.112 222.445 194.1 222.805 194.1C223.177 194.088 223.525 194.082 223.849 194.082C224.857 194.082 225.691 194.214 226.351 194.478C227.023 194.742 227.527 195.156 227.863 195.72C228.211 196.284 228.385 197.022 228.385 197.934V204H226.405ZM223.255 204.252C222.547 204.252 221.923 204.126 221.383 203.874C220.855 203.622 220.441 203.262 220.141 202.794C219.853 202.326 219.709 201.762 219.709 201.102C219.709 200.382 219.883 199.794 220.231 199.338C220.591 198.882 221.089 198.54 221.725 198.312C222.373 198.084 223.129 197.97 223.993 197.97H226.261V199.464H223.957C223.381 199.464 222.937 199.608 222.625 199.896C222.325 200.172 222.175 200.532 222.175 200.976C222.175 201.42 222.325 201.78 222.625 202.056C222.937 202.332 223.381 202.47 223.957 202.47C224.305 202.47 224.623 202.41 224.911 202.29C225.211 202.158 225.457 201.942 225.649 201.642C225.853 201.33 225.967 200.91 225.991 200.382L226.603 201.084C226.543 201.768 226.375 202.344 226.099 202.812C225.835 203.28 225.463 203.64 224.983 203.892C224.515 204.132 223.939 204.252 223.255 204.252ZM235.313 204.126C234.413 204.126 233.669 204.012 233.081 203.784C232.505 203.544 232.073 203.148 231.785 202.596C231.497 202.032 231.353 201.276 231.353 200.328L231.371 191.472H233.711L233.693 200.49C233.693 200.97 233.819 201.342 234.071 201.606C234.335 201.858 234.707 201.984 235.187 201.984H236.717V204.126H235.313ZM229.805 196.062V194.226H236.717V196.062H229.805ZM239.285 204V194.226H241.787V204H239.285ZM237.917 196.098V194.226H241.787V196.098H237.917ZM240.203 193.056C239.711 193.056 239.345 192.93 239.105 192.678C238.877 192.414 238.763 192.09 238.763 191.706C238.763 191.298 238.877 190.968 239.105 190.716C239.345 190.464 239.711 190.338 240.203 190.338C240.695 190.338 241.055 190.464 241.283 190.716C241.511 190.968 241.625 191.298 241.625 191.706C241.625 192.09 241.511 192.414 241.283 192.678C241.055 192.93 240.695 193.056 240.203 193.056ZM249.368 204.342C248.504 204.342 247.742 204.204 247.082 203.928C246.422 203.652 245.864 203.28 245.408 202.812C244.952 202.332 244.604 201.792 244.364 201.192C244.136 200.592 244.022 199.968 244.022 199.32V198.942C244.022 198.27 244.142 197.634 244.382 197.034C244.634 196.422 244.988 195.882 245.444 195.414C245.912 194.934 246.476 194.562 247.136 194.298C247.796 194.022 248.54 193.884 249.368 193.884C250.196 193.884 250.94 194.022 251.6 194.298C252.26 194.562 252.818 194.934 253.274 195.414C253.742 195.882 254.096 196.422 254.336 197.034C254.576 197.634 254.696 198.27 254.696 198.942V199.32C254.696 199.968 254.576 200.592 254.336 201.192C254.108 201.792 253.766 202.332 253.31 202.812C252.854 203.28 252.296 203.652 251.636 203.928C250.976 204.204 250.22 204.342 249.368 204.342ZM249.368 202.2C249.98 202.2 250.496 202.068 250.916 201.804C251.336 201.528 251.654 201.162 251.87 200.706C252.086 200.238 252.194 199.71 252.194 199.122C252.194 198.522 252.08 197.994 251.852 197.538C251.636 197.07 251.312 196.704 250.88 196.44C250.46 196.164 249.956 196.026 249.368 196.026C248.78 196.026 248.27 196.164 247.838 196.44C247.418 196.704 247.094 197.07 246.866 197.538C246.638 197.994 246.524 198.522 246.524 199.122C246.524 199.71 246.632 200.238 246.848 200.706C247.076 201.162 247.4 201.528 247.82 201.804C248.24 202.068 248.756 202.2 249.368 202.2ZM256.887 204V194.226H258.867V198.42H258.687C258.687 197.424 258.819 196.596 259.083 195.936C259.347 195.264 259.737 194.76 260.253 194.424C260.781 194.088 261.435 193.92 262.215 193.92H262.323C263.487 193.92 264.369 194.298 264.969 195.054C265.569 195.798 265.869 196.914 265.869 198.402V204H263.367V198.186C263.367 197.586 263.193 197.1 262.845 196.728C262.509 196.356 262.041 196.17 261.441 196.17C260.829 196.17 260.331 196.362 259.947 196.746C259.575 197.118 259.389 197.622 259.389 198.258V204H256.887Z" fill="#111111"/>
<rect x="0.5" y="0.5" width="279" height="224" rx="11.5" stroke="#E6E8EB"/>
<defs>
<filter id="filter0_d_238_7770" x="53.3705" y="48.5092" width="171.049" height="136.141" filterUnits="userSpaceOnUse" color-interpolation-filters="sRGB">
<feFlood flood-opacity="0" result="BackgroundImageFix"/>
<feColorMatrix in="SourceAlpha" type="matrix" values="0 0 0 0 0 0 0 0 0 0 0 0 0 0 0 0 0 0 127 0" result="hardAlpha"/>
<feOffset dy="12.2178"/>
<feGaussianBlur stdDeviation="7.85429"/>
<feColorMatrix type="matrix" values="0 0 0 0 0.027451 0 0 0 0 0.054902 0 0 0 0 0.152941 0 0 0 0.05 0"/>
<feBlend mode="normal" in2="BackgroundImageFix" result="effect1_dropShadow_238_7770"/>
<feBlend mode="normal" in="SourceGraphic" in2="effect1_dropShadow_238_7770" result="shape"/>
</filter>
<filter id="filter1_d_238_7770" x="24.174" y="116.564" width="69.6503" height="55.4227" filterUnits="userSpaceOnUse" color-interpolation-filters="sRGB">
<feFlood flood-opacity="0" result="BackgroundImageFix"/>
<feColorMatrix in="SourceAlpha" type="matrix" values="0 0 0 0 0 0 0 0 0 0 0 0 0 0 0 0 0 0 127 0" result="hardAlpha"/>
<feOffset dy="9.198"/>
<feGaussianBlur stdDeviation="5.913"/>
<feColorMatrix type="matrix" values="0 0 0 0 0.027451 0 0 0 0 0.054902 0 0 0 0 0.152941 0 0 0 0.05 0"/>
<feBlend mode="normal" in2="BackgroundImageFix" result="effect1_dropShadow_238_7770"/>
<feBlend mode="normal" in="SourceGraphic" in2="effect1_dropShadow_238_7770" result="shape"/>
</filter>
<linearGradient id="paint0_linear_238_7770" x1="275.98" y1="211.549" x2="-30.7487" y2="147.688" gradientUnits="userSpaceOnUse">
<stop stop-color="#E7DEFF"/>
<stop offset="1" stop-color="#E9F7FF"/>
</linearGradient>
<clipPath id="clip0_238_7770">
<rect x="32" y="16" width="216" height="160" rx="5.56223" fill="white"/>
</clipPath>
</defs>
</svg>
