<svg width="176" height="51" viewBox="0 0 176 51" fill="none" xmlns="http://www.w3.org/2000/svg">
<g clip-path="url(#clip0_2620_5135)">
<path d="M169.481 51H6.51852C2.93496 51 0 48.1297 0 44.625V6.375C0 2.87034 2.93496 9.53674e-07 6.51852 9.53674e-07H169.481C173.065 9.53674e-07 176 2.87034 176 6.375V44.625C176 48.1297 173.065 51 169.481 51Z" fill="white"/>
<g opacity="0.6">
<path d="M12.6241 9.61208C12.2412 10.0041 12.0195 10.6145 12.0195 11.405V39.6017C12.0195 40.3922 12.2412 41.0026 12.6241 41.3946L12.7186 41.4807L28.8748 25.6866V25.3137L12.7186 9.51964L12.6241 9.61208Z" fill="black"/>
<path d="M36.2114 30.9539L30.832 25.6865V25.3136L36.218 20.0462L36.3385 20.1148L42.7169 23.664C44.5372 24.6713 44.5372 26.3288 42.7169 27.3424L36.3385 30.8853L36.2114 30.9539V30.9539Z" fill="black"/>
<path d="M35.3587 31.8661L29.8522 26.4808L13.6016 42.3753C14.2062 42.9969 15.1921 43.0718 16.3133 42.4502L35.3587 31.8661" fill="black"/>
<path d="M35.3587 19.1343L16.3133 8.55016C15.1921 7.93497 14.2062 8.00987 13.6016 8.63144L29.8522 24.5195L35.3587 19.1343Z" fill="black"/>
</g>
<g opacity="0.6">
<path d="M61.8249 13.0606C61.8249 14.1252 61.499 14.9779 60.8569 15.6138C60.1187 16.3676 59.1572 16.7469 57.979 16.7469C56.8529 16.7469 55.8914 16.3612 55.1027 15.601C54.3123 14.8297 53.918 13.883 53.918 12.7498C53.918 11.6167 54.3123 10.67 55.1027 9.90497C55.8914 9.13837 56.8529 8.75269 57.979 8.75269C58.5396 8.75269 59.0741 8.86584 59.5842 9.07622C60.0926 9.28819 60.5066 9.57506 60.8064 9.92887L60.1252 10.6014C59.6021 9.9974 58.89 9.69937 57.979 9.69937C57.1577 9.69937 56.4455 9.97987 55.8409 10.5457C55.2429 11.113 54.943 11.8477 54.943 12.7498C54.943 13.6519 55.2429 14.393 55.8409 14.9603C56.4455 15.5197 57.1577 15.8066 57.979 15.8066C58.8509 15.8066 59.5842 15.5197 60.1627 14.954C60.544 14.5794 60.7608 14.0631 60.8178 13.4032H57.979V12.4821H61.7663C61.8119 12.6813 61.8249 12.8741 61.8249 13.0606V13.0606Z" fill="black"/>
<path d="M67.8341 9.86645H64.2766V12.289H67.4838V13.2101H64.2766V15.6326H67.8341V16.5714H63.2695V8.92773H67.8341V9.86645Z" fill="black"/>
<path d="M72.0759 16.5714H71.0688V9.86645H68.8867V8.92773H74.2596V9.86645H72.0759V16.5714V16.5714Z" fill="black"/>
<path d="M78.1445 16.5714V8.92773H79.15V16.5714H78.1445Z" fill="black"/>
<path d="M83.611 16.5714H82.6121V9.86645H80.4219V8.92773H85.8013V9.86645H83.611V16.5714Z" fill="black"/>
<path d="M95.9666 15.5883C95.1958 16.3612 94.2408 16.7469 93.1017 16.7469C91.956 16.7469 91.0011 16.3612 90.2303 15.5883C89.4611 14.8169 89.0781 13.8702 89.0781 12.7498C89.0781 11.6294 89.4611 10.6827 90.2303 9.91134C91.0011 9.13837 91.956 8.75269 93.1017 8.75269C94.2343 8.75269 95.1892 9.13837 95.9601 9.91772C96.7358 10.6955 97.1187 11.6358 97.1187 12.7498C97.1187 13.8702 96.7358 14.8169 95.9666 15.5883ZM90.975 14.9476C91.5552 15.5197 92.2608 15.8066 93.1017 15.8066C93.9361 15.8066 94.6482 15.5197 95.2218 14.9476C95.8004 14.3754 96.0937 13.6407 96.0937 12.7498C96.0937 11.8589 95.8004 11.1242 95.2218 10.552C94.6482 9.97987 93.9361 9.693 93.1017 9.693C92.2608 9.693 91.5552 9.97987 90.975 10.552C90.3965 11.1242 90.1032 11.8589 90.1032 12.7498C90.1032 13.6407 90.3965 14.3754 90.975 14.9476V14.9476Z" fill="black"/>
<path d="M98.5352 16.5714V8.92773H99.7574L103.558 14.8724H103.602L103.558 13.403V8.92773H104.563V16.5714H103.514L99.5341 10.3334H99.4901L99.5341 11.8092V16.5714H98.5352V16.5714Z" fill="black"/>
</g>
<g opacity="0.6">
<path d="M88.8238 27.7346C85.7618 27.7346 83.2603 30.0137 83.2603 33.1581C83.2603 36.2771 85.7618 38.5801 88.8238 38.5801C91.8924 38.5801 94.3939 36.2771 94.3939 33.1581C94.3939 30.0137 91.8924 27.7346 88.8238 27.7346ZM88.8238 36.4444C87.1437 36.4444 85.6982 35.0882 85.6982 33.1581C85.6982 31.2026 87.1437 29.8702 88.8238 29.8702C90.504 29.8702 91.956 31.2026 91.956 33.1581C91.956 35.0882 90.504 36.4444 88.8238 36.4444V36.4444ZM76.6847 27.7346C73.6161 27.7346 71.1212 30.0137 71.1212 33.1581C71.1212 36.2771 73.6161 38.5801 76.6847 38.5801C79.7517 38.5801 82.2483 36.2771 82.2483 33.1581C82.2483 30.0137 79.7517 27.7346 76.6847 27.7346ZM76.6847 36.4444C75.003 36.4444 73.5526 35.0882 73.5526 33.1581C73.5526 31.2026 75.003 29.8702 76.6847 29.8702C78.3649 29.8702 79.8104 31.2026 79.8104 33.1581C79.8104 35.0882 78.3649 36.4444 76.6847 36.4444ZM62.2397 29.3969V31.7014H67.8668C67.7022 32.9892 67.2622 33.9359 66.5875 34.5957C65.7662 35.3926 64.487 36.2771 62.2397 36.2771C58.7767 36.2771 56.065 33.5438 56.065 30.1571C56.065 26.7704 58.7767 24.0371 62.2397 24.0371C64.1121 24.0371 65.4745 24.7527 66.48 25.6803L68.1406 24.0562C66.7342 22.743 64.8634 21.7341 62.2397 21.7341C57.491 21.7341 53.5 25.5129 53.5 30.1571C53.5 34.8013 57.491 38.5801 62.2397 38.5801C64.8064 38.5801 66.7342 37.7577 68.2498 36.2149C69.8028 34.6961 70.2868 32.5605 70.2868 30.836C70.2868 30.3005 70.2412 29.8081 70.1597 29.3969H62.2397ZM121.307 31.1835C120.849 29.9706 119.436 27.7346 116.559 27.7346C113.707 27.7346 111.332 29.9324 111.332 33.1581C111.332 36.1958 113.682 38.5801 116.832 38.5801C119.379 38.5801 120.849 37.0612 121.454 36.1767L119.564 34.9447C118.933 35.8468 118.074 36.4444 116.832 36.4444C115.599 36.4444 114.714 35.8914 114.147 34.8013L121.563 31.8003L121.307 31.1835V31.1835ZM113.746 32.9892C113.682 30.8982 115.406 29.8272 116.642 29.8272C117.61 29.8272 118.431 30.3005 118.705 30.9779L113.746 32.9892V32.9892ZM107.718 38.2502H110.156V22.3127H107.718V38.2502ZM103.725 28.9427H103.644C103.096 28.3084 102.052 27.7346 100.728 27.7346C97.9514 27.7346 95.4124 30.1189 95.4124 33.1757C95.4124 36.2149 97.9514 38.5801 100.728 38.5801C102.052 38.5801 103.096 38.0015 103.644 37.3481H103.725V38.1259C103.725 40.1993 102.593 41.3133 100.766 41.3133C99.2763 41.3133 98.3523 40.2615 97.971 39.3769L95.8508 40.2424C96.4619 41.6799 98.0801 43.449 100.766 43.449C103.624 43.449 106.036 41.8042 106.036 37.8023V28.0645H103.725V28.9427V28.9427ZM100.937 36.4444C99.2567 36.4444 97.8504 35.069 97.8504 33.1757C97.8504 31.2648 99.2567 29.8702 100.937 29.8702C102.593 29.8702 103.898 31.2648 103.898 33.1757C103.898 35.069 102.593 36.4444 100.937 36.4444V36.4444ZM132.721 22.3127H126.89V38.2502H129.322V32.2114H132.721C135.421 32.2114 138.07 30.3005 138.07 27.2613C138.07 24.2236 135.415 22.3127 132.721 22.3127V22.3127ZM132.785 29.9945H129.322V24.5296H132.785C134.6 24.5296 135.637 26.0038 135.637 27.2613C135.637 28.4948 134.6 29.9945 132.785 29.9945ZM147.815 27.7043C146.058 27.7043 144.231 28.4629 143.48 30.1444L145.638 31.0289C146.102 30.1444 146.956 29.8575 147.859 29.8575C149.12 29.8575 150.399 30.5986 150.419 31.907V32.0744C149.979 31.8258 149.037 31.4576 147.878 31.4576C145.555 31.4576 143.187 32.7087 143.187 35.0435C143.187 37.1792 145.09 38.5546 147.23 38.5546C148.866 38.5546 149.769 37.8326 150.336 36.9927H150.419V38.2247H152.767V32.111C152.767 29.2853 150.61 27.7043 147.815 27.7043ZM147.521 36.4381C146.726 36.4381 145.618 36.0524 145.618 35.0882C145.618 33.8546 147 33.3813 148.196 33.3813C149.267 33.3813 149.769 33.6124 150.419 33.9168C150.228 35.3926 148.929 36.4381 147.521 36.4381V36.4381ZM161.323 28.0534L158.528 34.9623H158.445L155.556 28.0534H152.933L157.275 37.7083L154.798 43.0808H157.338L164.028 28.0534H161.323V28.0534ZM139.406 38.2502H141.844V22.3127H139.406V38.2502Z" fill="black"/>
</g>
<rect width="139.867" height="17.5847" transform="translate(72.0234 -16) rotate(27.1473)" fill="#5354D1"/>
<path d="M96.3057 10.6245C95.7157 10.3219 95.2642 9.96 94.9511 9.53868C94.644 9.12039 94.4483 8.68099 94.364 8.22048C94.2797 7.75997 94.2769 7.30771 94.3556 6.86368C94.4373 6.41375 94.5704 6.00883 94.7549 5.64892L94.8548 5.45421C95.0544 5.06479 95.3131 4.70563 95.6308 4.37672C95.9544 4.05084 96.3247 3.79364 96.7418 3.60512C97.1589 3.4166 97.6209 3.32937 98.1279 3.34341C98.6348 3.35746 99.1715 3.50971 99.738 3.80015C100.316 4.09665 100.76 4.45109 101.071 4.86348C101.381 5.27588 101.564 5.72405 101.622 6.20801C101.679 6.69197 101.609 7.19243 101.411 7.70938L100.526 7.25556C100.666 6.86554 100.702 6.50411 100.635 6.17129C100.57 5.83256 100.423 5.53007 100.195 5.26382C99.9719 5.00059 99.6835 4.77822 99.3295 4.59669C98.946 4.40003 98.5749 4.29544 98.2162 4.28289C97.8605 4.26445 97.5233 4.32627 97.2046 4.46834C96.8947 4.60753 96.6095 4.80777 96.3488 5.06905C96.0941 5.33336 95.8729 5.64842 95.6853 6.01423C95.5068 6.36235 95.3846 6.71697 95.3187 7.07809C95.2586 7.44223 95.2639 7.79518 95.3346 8.13693C95.4112 8.48171 95.5606 8.80054 95.783 9.09342C96.0085 9.3804 96.3188 9.62524 96.7142 9.82794C97.2688 10.1123 97.806 10.2127 98.3258 10.129C98.8456 10.0453 99.2815 9.7621 99.6333 9.27934L100.518 9.73316C100.232 10.1454 99.8748 10.4724 99.4453 10.7142C99.0217 10.959 98.5415 11.0816 98.0048 11.0821C97.4739 11.0856 96.9076 10.9331 96.3057 10.6245Z" fill="white"/>
<path d="M103.518 14.3228C102.94 14.0263 102.494 13.6674 102.181 13.246C101.868 12.8247 101.662 12.3763 101.563 11.9008C101.464 11.4253 101.445 10.9611 101.506 10.5079C101.573 10.0579 101.697 9.65583 101.879 9.30181L101.979 9.1071C102.175 8.72359 102.441 8.37191 102.777 8.05208C103.112 7.73225 103.5 7.48412 103.941 7.30771C104.385 7.12539 104.863 7.04277 105.376 7.05984C105.894 7.07994 106.437 7.23521 107.003 7.52566C107.57 7.8161 108.01 8.16457 108.323 8.57106C108.642 8.98058 108.857 9.41869 108.968 9.8854C109.082 10.3462 109.107 10.8061 109.043 11.2651C108.979 11.7241 108.848 12.1454 108.652 12.5289L108.552 12.7236C108.37 13.0776 108.114 13.4116 107.781 13.7255C107.455 14.0425 107.07 14.2995 106.626 14.4967C106.182 14.6938 105.697 14.7882 105.173 14.7799C104.648 14.7716 104.096 14.6192 103.518 14.3228ZM103.927 13.5262C104.304 13.7198 104.68 13.823 105.053 13.8357C105.433 13.8514 105.791 13.7928 106.127 13.6598C106.467 13.5209 106.771 13.3268 107.04 13.0775C107.313 12.8222 107.537 12.5235 107.712 12.1813C107.897 11.8214 108.013 11.4563 108.062 11.0861C108.11 10.7159 108.088 10.3584 107.997 10.0134C107.908 9.6626 107.746 9.34068 107.508 9.04765C107.277 8.75764 106.973 8.51582 106.595 8.32219C106.217 8.12856 105.84 8.02094 105.464 7.99932C105.093 7.98073 104.74 8.03793 104.404 8.17092C104.07 8.29802 103.767 8.48918 103.495 8.74441C103.222 8.99964 102.994 9.30721 102.809 9.66713C102.634 10.0093 102.522 10.3655 102.474 10.7357C102.428 11.1 102.448 11.4606 102.534 11.8173C102.622 12.1681 102.781 12.4915 103.009 12.7874C103.243 13.0863 103.549 13.3326 103.927 13.5262Z" fill="white"/>
<path d="M108.452 16.6514L111.765 10.1907L112.915 10.7806L112.617 16.071L112.758 16.1436L116.871 12.8092L118.031 13.4037L114.718 19.8645L113.851 19.4197L116.678 13.906L116.731 13.9554L112.766 17.1757L111.704 16.6311L111.996 11.5275L112.076 11.5461L109.248 17.0599L108.452 16.6514Z" fill="white"/>
<path d="M116.7 20.8807L120.013 14.4199L120.88 14.8647L117.567 21.3254L116.7 20.8807Z" fill="white"/>
<path d="M119.554 22.344L122.866 15.8833L124.283 16.6094L124.652 23.975L124.936 24.1202L124.677 24.1888L127.672 18.3475L128.504 18.7741L125.191 25.2349L123.758 24.4997L123.388 17.1341L123.104 16.9888L123.363 16.9203L120.368 22.7616L119.554 22.344Z" fill="white"/>
<path d="M129.956 27.8794C129.455 27.6223 129.043 27.3067 128.72 26.9328C128.398 26.5588 128.166 26.1457 128.026 25.6935C127.891 25.2444 127.848 24.7754 127.898 24.2866C127.95 23.7919 128.1 23.3026 128.349 22.8188L128.448 22.6241C128.66 22.2111 128.935 21.8491 129.273 21.5382C129.621 21.2244 130.009 20.9837 130.437 20.8161C130.875 20.6455 131.337 20.5731 131.823 20.5988C132.312 20.6186 132.804 20.7556 133.3 21.0097C133.837 21.2851 134.262 21.6334 134.575 22.0547C134.891 22.4701 135.082 22.9258 135.148 23.4217C135.217 23.9117 135.15 24.4062 134.946 24.9053L134.061 24.4515C134.205 24.0704 134.239 23.712 134.166 23.3761C134.095 23.0344 133.945 22.7304 133.717 22.4641C133.497 22.195 133.222 21.9757 132.892 21.8063C132.555 21.6338 132.214 21.5369 131.867 21.5156C131.523 21.4884 131.191 21.534 130.869 21.6523C130.554 21.7736 130.26 21.9619 129.987 22.2171C129.715 22.4724 129.479 22.7947 129.279 23.1841C129.052 23.6266 128.911 24.0463 128.857 24.4431C128.811 24.8371 128.84 25.2021 128.944 25.5383C129.05 25.8685 129.222 26.1653 129.46 26.4287C129.703 26.6951 130.002 26.9191 130.356 27.1006C130.857 27.3578 131.348 27.4829 131.829 27.4759C132.318 27.466 132.743 27.3488 133.104 27.1241L132.246 28.0139L133.231 26.0934L134.045 26.5109L133.255 28.0509C132.772 28.2802 132.249 28.3846 131.686 28.3641C131.123 28.3435 130.546 28.182 129.956 27.8794ZM131.042 25.1948L131.414 24.4691L134.875 26.2435L134.503 26.9693L131.042 25.1948Z" fill="white"/>
<path d="M138.715 32.3704C138.178 32.0951 137.766 31.7721 137.479 31.4015C137.192 31.0308 137.029 30.6377 136.988 30.2222C136.948 29.8066 137.029 29.4011 137.232 29.0058L138.099 29.4506C137.999 29.6453 137.95 29.8657 137.95 30.1118C137.957 30.361 138.047 30.6125 138.223 30.8664C138.404 31.1232 138.704 31.3591 139.123 31.5739C139.512 31.7736 139.86 31.8809 140.165 31.8959C140.473 31.9049 140.734 31.8482 140.945 31.7258C141.16 31.5975 141.324 31.4242 141.435 31.2059C141.572 30.9404 141.568 30.6631 141.426 30.374C141.287 30.079 141.006 29.7974 140.585 29.5292L139.9 29.0997C139.352 28.759 138.985 28.3475 138.8 27.8652C138.616 27.3829 138.652 26.891 138.909 26.3895C139.112 25.9942 139.383 25.6974 139.723 25.4992C140.069 25.304 140.455 25.2116 140.882 25.2219C141.312 25.2262 141.754 25.3449 142.209 25.5779C142.657 25.8078 143.01 26.0931 143.268 26.4338C143.525 26.7745 143.671 27.1437 143.706 27.5414C143.749 27.9363 143.665 28.3402 143.453 28.7532L142.586 28.3085C142.692 28.102 142.741 27.8815 142.735 27.6472C142.734 27.4159 142.661 27.1883 142.515 26.9644C142.369 26.7405 142.131 26.5438 141.8 26.3744C141.482 26.211 141.188 26.1309 140.918 26.1341C140.654 26.1403 140.422 26.2077 140.222 26.3361C140.031 26.4617 139.882 26.6277 139.776 26.8342C139.655 27.0702 139.639 27.3266 139.728 27.6033C139.817 27.88 140.034 28.1254 140.379 28.3394L141.064 28.769C141.489 29.0313 141.821 29.3208 142.061 29.6376C142.31 29.9515 142.455 30.2792 142.496 30.6206C142.546 30.9592 142.481 31.3026 142.303 31.6507C142.1 32.046 141.814 32.3426 141.444 32.5405C141.074 32.7384 140.654 32.8246 140.183 32.799C139.711 32.7735 139.222 32.6306 138.715 32.3704Z" fill="white"/>
<path d="M145.702 35.9531C145.123 35.6566 144.678 35.2977 144.365 34.8764C144.052 34.4551 143.846 34.0067 143.747 33.5312C143.648 33.0557 143.629 32.5914 143.69 32.1383C143.757 31.6882 143.881 31.2862 144.062 30.9322L144.162 30.7375C144.359 30.3539 144.625 30.0023 144.96 29.6824C145.296 29.3626 145.684 29.1145 146.124 28.9381C146.568 28.7557 147.046 28.6731 147.559 28.6902C148.078 28.7103 148.62 28.8656 149.187 29.156C149.753 29.4465 150.193 29.7949 150.506 30.2014C150.825 30.6109 151.04 31.049 151.151 31.5158C151.265 31.9766 151.29 32.4365 151.226 32.8955C151.162 33.3545 151.032 33.7757 150.835 34.1593L150.735 34.354C150.554 34.708 150.297 35.042 149.965 35.3559C149.638 35.6728 149.253 35.9299 148.809 36.127C148.365 36.3242 147.881 36.4186 147.356 36.4103C146.831 36.402 146.28 36.2496 145.702 35.9531ZM146.11 35.1566C146.488 35.3502 146.863 35.4534 147.237 35.4661C147.616 35.4818 147.974 35.4231 148.311 35.2901C148.65 35.1513 148.954 34.9571 149.224 34.7078C149.496 34.4526 149.72 34.1539 149.896 33.8116C150.08 33.4517 150.197 33.0867 150.245 32.7165C150.293 32.3463 150.272 31.9887 150.18 31.6438C150.092 31.293 149.929 30.971 149.692 30.678C149.461 30.388 149.156 30.1462 148.778 29.9525C148.401 29.7589 148.024 29.6513 147.647 29.6297C147.277 29.6111 146.923 29.6683 146.587 29.8013C146.254 29.9284 145.951 30.1195 145.678 30.3748C145.406 30.63 145.177 30.9376 144.993 31.2975C144.817 31.6397 144.705 31.9959 144.657 32.3661C144.612 32.7304 144.632 33.0909 144.717 33.4476C144.806 33.7985 144.964 34.1218 145.192 34.4177C145.427 34.7167 145.732 34.9629 146.11 35.1566Z" fill="white"/>
<path d="M153.448 39.9251C152.87 39.6286 152.424 39.2697 152.111 38.8484C151.798 38.4271 151.592 37.9787 151.493 37.5032C151.394 37.0277 151.375 36.5634 151.436 36.1103C151.503 35.6602 151.627 35.2582 151.808 34.9042L151.908 34.7094C152.105 34.3259 152.371 33.9743 152.706 33.6544C153.042 33.3346 153.43 33.0865 153.87 32.9101C154.314 32.7277 154.792 32.6451 155.305 32.6622C155.824 32.6823 156.367 32.8376 156.933 33.128C157.5 33.4184 157.939 33.7669 158.252 34.1734C158.572 34.5829 158.787 35.021 158.897 35.4877C159.011 35.9486 159.036 36.4085 158.972 36.8675C158.908 37.3265 158.778 37.7477 158.581 38.1312L158.482 38.326C158.3 38.68 158.043 39.0139 157.711 39.3279C157.384 39.6448 156.999 39.9019 156.555 40.099C156.111 40.2962 155.627 40.3906 155.102 40.3823C154.577 40.374 154.026 40.2216 153.448 39.9251ZM153.856 39.1286C154.234 39.3222 154.609 39.4254 154.983 39.438C155.362 39.4538 155.72 39.3951 156.057 39.2621C156.396 39.1232 156.701 38.9291 156.97 38.6798C157.243 38.4246 157.466 38.1258 157.642 37.7836C157.827 37.4237 157.943 37.0587 157.991 36.6885C158.039 36.3183 158.018 35.9607 157.926 35.6158C157.838 35.2649 157.675 34.943 157.438 34.65C157.207 34.36 156.902 34.1182 156.525 33.9245C156.147 33.7309 155.77 33.6233 155.394 33.6017C155.023 33.5831 154.67 33.6403 154.333 33.7733C154 33.9004 153.697 34.0915 153.424 34.3468C153.152 34.602 152.923 34.9096 152.739 35.2695C152.563 35.6117 152.452 35.9679 152.403 36.3381C152.358 36.7024 152.378 37.0629 152.463 37.4196C152.552 37.7705 152.71 38.0938 152.938 38.3897C153.173 38.6887 153.479 38.9349 153.856 39.1286Z" fill="white"/>
<path d="M158.382 42.2538L161.694 35.793L163.11 36.5191L163.48 43.8847L163.764 44.03L163.505 44.0985L166.5 38.2572L167.332 38.6838L164.019 45.1446L162.585 44.4094L162.215 37.0438L161.932 36.8986L162.191 36.83L159.196 42.6713L158.382 42.2538Z" fill="white"/>
</g>
<defs>
<clipPath id="clip0_2620_5135">
<rect width="140.8" height="40.8" rx="5" transform="matrix(1.25 0 0 -1.25 0 51)" fill="white"/>
</clipPath>
</defs>
</svg>
