<svg width="280" height="225" viewBox="0 0 280 225" fill="none" xmlns="http://www.w3.org/2000/svg">
<rect x="0.5" y="0.5" width="279" height="224" rx="11.5" fill="url(#paint0_linear_238_7902)" fill-opacity="0.4"/>
<g clip-path="url(#clip0_238_7902)">
<g filter="url(#filter0_d_238_7902)">
<rect x="69.2169" y="52" width="141.567" height="106.175" rx="4.247" fill="white"/>
</g>
<path d="M173.678 120.883H123.973V126.22H173.678V120.883Z" fill="#5354D1"/>
<path d="M182.405 105.253H138.012V110.59H182.405V105.253Z" fill="#C1A1FD"/>
<path d="M196.824 133.844H138.012V139.943H196.824V133.844Z" fill="#C1A1FD"/>
<path d="M127.767 133.844H105.381V139.943H127.767V133.844Z" fill="#37D5C7"/>
<path d="M113.728 120.883H91.342V126.22H113.728V120.883Z" fill="#37D5C7"/>
<path d="M113.728 78.1875H91.342V83.5244H113.728V78.1875Z" fill="#37D5C7"/>
<path d="M127.767 92.2922H105.381V97.6291H127.767V92.2922Z" fill="#37D5C7"/>
<path d="M182.405 92.2922H138.012V97.6291H182.405V92.2922Z" fill="#C1A1FD"/>
<path d="M127.767 105.253H105.381V110.59H127.767V105.253Z" fill="#37D5C7"/>
<path d="M168.366 78.1875H122.455V83.5244H168.366V78.1875Z" fill="#5354D1"/>
<path d="M196.065 78.1875H176.714V83.5244H196.065V78.1875Z" fill="#37D3C6"/>
<path d="M83.7535 66.3701C85.0108 66.3701 86.0301 65.3461 86.0301 64.0829C86.0301 62.8197 85.0108 61.7957 83.7535 61.7957C82.4962 61.7957 81.4769 62.8197 81.4769 64.0829C81.4769 65.3461 82.4962 66.3701 83.7535 66.3701Z" fill="#24285B"/>
<path d="M90.7731 66.3701C92.1352 66.3701 93.2394 65.3461 93.2394 64.0829C93.2394 62.8197 92.1352 61.7957 90.7731 61.7957C89.411 61.7957 88.3068 62.8197 88.3068 64.0829C88.3068 65.3461 89.411 66.3701 90.7731 66.3701Z" fill="#5354D1"/>
<path d="M97.4131 66.3701C98.6704 66.3701 99.6896 65.3461 99.6896 64.0829C99.6896 62.8197 98.6704 61.7957 97.4131 61.7957C96.1557 61.7957 95.1365 62.8197 95.1365 64.0829C95.1365 65.3461 96.1557 66.3701 97.4131 66.3701Z" fill="#37D5C7"/>
<g filter="url(#filter1_d_238_7902)">
<path d="M180.346 109.13L202.032 161.21L209.731 138.53L232.398 130.827L180.346 109.13Z" fill="#535CD0"/>
<path d="M180.346 109.13L202.032 161.21L209.731 138.53L232.398 130.827L180.346 109.13Z" stroke="#535CD0" stroke-width="6.13455" stroke-linecap="round" stroke-linejoin="round"/>
</g>
<g filter="url(#filter2_d_238_7902)">
<path d="M211.019 139.819L229.423 158.233" stroke="#535CD0" stroke-width="6.13455" stroke-linecap="round" stroke-linejoin="round"/>
</g>
<g filter="url(#filter3_d_238_7902)">
<path d="M90.8663 86.3936H43.1818C41.338 86.3936 39.8433 87.8883 39.8433 89.7321V120.602C39.8433 122.446 41.338 123.941 43.1818 123.941H90.8663C92.7101 123.941 94.2048 122.446 94.2048 120.602V89.7321C94.2048 87.8883 92.7101 86.3936 90.8663 86.3936Z" fill="white"/>
</g>
<path d="M59.7225 112.539C59.4392 112.54 59.164 112.445 58.9417 112.268L50.79 105.794C50.6436 105.674 50.5255 105.523 50.4444 105.352C50.3634 105.181 50.3213 104.994 50.3213 104.804C50.3213 104.615 50.3634 104.427 50.4444 104.256C50.5255 104.085 50.6436 103.934 50.79 103.814L58.9417 97.2156C59.203 97.0017 59.5381 96.9008 59.8734 96.9352C60.2088 96.9696 60.5167 97.1364 60.7296 97.3989C60.9425 97.6614 61.0429 97.9981 61.0087 98.335C60.9745 98.6719 60.8085 98.9813 60.5472 99.1952L53.6288 104.79L60.5399 110.281C60.7434 110.445 60.8914 110.668 60.9636 110.92C61.0358 111.172 61.0286 111.44 60.943 111.687C60.8574 111.935 60.6977 112.15 60.4857 112.302C60.2736 112.455 60.0198 112.538 59.759 112.539H59.7225Z" fill="#535CD0"/>
<path d="M74.4788 112.539C74.2147 112.545 73.9555 112.467 73.7381 112.316C73.5207 112.165 73.3562 111.95 73.2681 111.699C73.1799 111.449 73.1726 111.177 73.2472 110.923C73.3217 110.668 73.4744 110.444 73.6833 110.281L80.5944 104.789L73.6833 99.1952C73.424 98.9842 73.2587 98.6783 73.2238 98.3449C73.1889 98.0114 73.2872 97.6777 73.4972 97.4171C73.7072 97.1566 74.0117 96.9905 74.3436 96.9554C74.6754 96.9204 75.0076 97.0192 75.267 97.2302L83.4113 103.829C83.5634 103.948 83.6865 104.1 83.7712 104.275C83.8559 104.449 83.9 104.64 83.9003 104.833C83.8972 105.024 83.8524 105.211 83.7692 105.382C83.6859 105.553 83.5663 105.704 83.4186 105.823L75.267 112.297C75.0396 112.467 74.7614 112.552 74.4788 112.539Z" fill="#535CD0"/>
<path d="M63.6782 112.54C63.4988 112.54 63.3217 112.5 63.16 112.422C63.0093 112.354 62.8736 112.257 62.7607 112.136C62.6478 112.015 62.5599 111.872 62.5022 111.717C62.4445 111.561 62.4181 111.396 62.4245 111.23C62.431 111.064 62.4701 110.901 62.5397 110.75L68.4728 97.6849C68.5355 97.5241 68.6301 97.3779 68.751 97.2552C68.8719 97.1325 69.0164 97.0359 69.1757 96.9713C69.335 96.9067 69.5058 96.8754 69.6776 96.8794C69.8493 96.8834 70.0185 96.9225 70.1747 96.9945C70.3308 97.0664 70.4708 97.1697 70.5859 97.2979C70.7009 97.426 70.7888 97.5765 70.844 97.7399C70.8992 97.9034 70.9206 98.0765 70.9069 98.2486C70.8932 98.4206 70.8447 98.5881 70.7643 98.7407L64.8239 111.799C64.7234 112.02 64.5621 112.207 64.359 112.338C64.1559 112.469 63.9196 112.539 63.6782 112.54Z" fill="#535CD0"/>
</g>
<path d="M53.656 204V190.86H56.212V204H53.656ZM59.2931 204V194.226H61.2731V198.42H61.0931C61.0931 197.424 61.2251 196.596 61.4891 195.936C61.7531 195.264 62.1431 194.76 62.6591 194.424C63.1871 194.088 63.8411 193.92 64.6211 193.92H64.7291C65.8931 193.92 66.7751 194.298 67.3751 195.054C67.9751 195.798 68.2751 196.914 68.2751 198.402V204H65.7731V198.186C65.7731 197.586 65.5991 197.1 65.2511 196.728C64.9151 196.356 64.4471 196.17 63.8471 196.17C63.2351 196.17 62.7371 196.362 62.3531 196.746C61.9811 197.118 61.7951 197.622 61.7951 198.258V204H59.2931ZM75.213 204.126C74.313 204.126 73.569 204.012 72.981 203.784C72.405 203.544 71.973 203.148 71.685 202.596C71.397 202.032 71.253 201.276 71.253 200.328L71.271 191.472H73.611L73.593 200.49C73.593 200.97 73.719 201.342 73.971 201.606C74.235 201.858 74.607 201.984 75.087 201.984H76.617V204.126H75.213ZM69.705 196.062V194.226H76.617V196.062H69.705ZM83.0382 204.342C82.1982 204.342 81.4602 204.198 80.8242 203.91C80.2002 203.622 79.6782 203.238 79.2582 202.758C78.8502 202.266 78.5382 201.72 78.3222 201.12C78.1182 200.52 78.0162 199.908 78.0162 199.284V198.942C78.0162 198.294 78.1182 197.67 78.3222 197.07C78.5382 196.458 78.8502 195.918 79.2582 195.45C79.6782 194.97 80.1942 194.592 80.8062 194.316C81.4182 194.028 82.1262 193.884 82.9302 193.884C83.9862 193.884 84.8682 194.118 85.5762 194.586C86.2962 195.042 86.8362 195.648 87.1962 196.404C87.5562 197.148 87.7362 197.952 87.7362 198.816V199.716H79.0782V198.186H86.1702L85.3962 198.942C85.3962 198.318 85.3062 197.784 85.1262 197.34C84.9462 196.896 84.6702 196.554 84.2982 196.314C83.9382 196.074 83.4822 195.954 82.9302 195.954C82.3782 195.954 81.9102 196.08 81.5262 196.332C81.1422 196.584 80.8482 196.95 80.6442 197.43C80.4522 197.898 80.3562 198.462 80.3562 199.122C80.3562 199.734 80.4522 200.28 80.6442 200.76C80.8362 201.228 81.1302 201.6 81.5262 201.876C81.9222 202.14 82.4262 202.272 83.0382 202.272C83.6502 202.272 84.1482 202.152 84.5322 201.912C84.9162 201.66 85.1622 201.354 85.2702 200.994H87.5742C87.4302 201.666 87.1542 202.254 86.7462 202.758C86.3382 203.262 85.8162 203.652 85.1802 203.928C84.5562 204.204 83.8422 204.342 83.0382 204.342ZM89.8263 204V194.226H91.8063V198.366H91.7523C91.7523 196.962 92.0523 195.9 92.6523 195.18C93.2523 194.46 94.1343 194.1 95.2983 194.1H95.6583V196.278H94.9743C94.1343 196.278 93.4803 196.506 93.0123 196.962C92.5563 197.406 92.3283 198.054 92.3283 198.906V204H89.8263ZM103.201 204V201.102H102.787V197.88C102.787 197.316 102.649 196.896 102.373 196.62C102.097 196.344 101.671 196.206 101.095 196.206C100.795 196.206 100.435 196.212 100.015 196.224C99.5954 196.236 99.1694 196.254 98.7374 196.278C98.3174 196.29 97.9394 196.308 97.6034 196.332V194.208C97.8794 194.184 98.1914 194.16 98.5394 194.136C98.8874 194.112 99.2414 194.1 99.6014 194.1C99.9734 194.088 100.321 194.082 100.645 194.082C101.653 194.082 102.487 194.214 103.147 194.478C103.819 194.742 104.323 195.156 104.659 195.72C105.007 196.284 105.181 197.022 105.181 197.934V204H103.201ZM100.051 204.252C99.3434 204.252 98.7194 204.126 98.1794 203.874C97.6514 203.622 97.2374 203.262 96.9374 202.794C96.6494 202.326 96.5054 201.762 96.5054 201.102C96.5054 200.382 96.6794 199.794 97.0274 199.338C97.3874 198.882 97.8854 198.54 98.5214 198.312C99.1694 198.084 99.9254 197.97 100.789 197.97H103.057V199.464H100.753C100.177 199.464 99.7334 199.608 99.4214 199.896C99.1214 200.172 98.9714 200.532 98.9714 200.976C98.9714 201.42 99.1214 201.78 99.4214 202.056C99.7334 202.332 100.177 202.47 100.753 202.47C101.101 202.47 101.419 202.41 101.707 202.29C102.007 202.158 102.253 201.942 102.445 201.642C102.649 201.33 102.763 200.91 102.787 200.382L103.399 201.084C103.339 201.768 103.171 202.344 102.895 202.812C102.631 203.28 102.259 203.64 101.779 203.892C101.311 204.132 100.735 204.252 100.051 204.252ZM112.199 204.342C111.347 204.342 110.609 204.198 109.985 203.91C109.373 203.622 108.857 203.238 108.437 202.758C108.029 202.278 107.723 201.738 107.519 201.138C107.315 200.538 107.213 199.926 107.213 199.302V198.96C107.213 198.3 107.315 197.67 107.519 197.07C107.735 196.458 108.053 195.918 108.473 195.45C108.893 194.97 109.409 194.592 110.021 194.316C110.645 194.028 111.365 193.884 112.181 193.884C113.033 193.884 113.795 194.052 114.467 194.388C115.139 194.712 115.673 195.168 116.069 195.756C116.477 196.344 116.705 197.028 116.753 197.808H114.323C114.263 197.304 114.047 196.884 113.675 196.548C113.315 196.212 112.817 196.044 112.181 196.044C111.629 196.044 111.167 196.176 110.795 196.44C110.435 196.704 110.165 197.07 109.985 197.538C109.805 197.994 109.715 198.522 109.715 199.122C109.715 199.698 109.799 200.22 109.967 200.688C110.147 201.156 110.417 201.522 110.777 201.786C111.149 202.05 111.623 202.182 112.199 202.182C112.631 202.182 113.003 202.104 113.315 201.948C113.627 201.792 113.873 201.576 114.053 201.3C114.245 201.024 114.365 200.712 114.413 200.364H116.843C116.795 201.156 116.561 201.852 116.141 202.452C115.733 203.04 115.187 203.502 114.503 203.838C113.831 204.174 113.063 204.342 112.199 204.342ZM123.096 204.126C122.196 204.126 121.452 204.012 120.864 203.784C120.288 203.544 119.856 203.148 119.568 202.596C119.28 202.032 119.136 201.276 119.136 200.328L119.154 191.472H121.494L121.476 200.49C121.476 200.97 121.602 201.342 121.854 201.606C122.118 201.858 122.49 201.984 122.97 201.984H124.5V204.126H123.096ZM117.588 196.062V194.226H124.5V196.062H117.588ZM127.068 204V194.226H129.57V204H127.068ZM125.7 196.098V194.226H129.57V196.098H125.7ZM127.986 193.056C127.494 193.056 127.128 192.93 126.888 192.678C126.66 192.414 126.546 192.09 126.546 191.706C126.546 191.298 126.66 190.968 126.888 190.716C127.128 190.464 127.494 190.338 127.986 190.338C128.478 190.338 128.838 190.464 129.066 190.716C129.294 190.968 129.408 191.298 129.408 191.706C129.408 192.09 129.294 192.414 129.066 192.678C128.838 192.93 128.478 193.056 127.986 193.056ZM134.415 204L131.355 194.226H133.929L136.863 204H134.415ZM135.153 204V201.948H137.799V204H135.153ZM136.143 204L138.663 194.226H141.075L138.429 204H136.143ZM147.128 204.342C146.288 204.342 145.55 204.198 144.914 203.91C144.29 203.622 143.768 203.238 143.348 202.758C142.94 202.266 142.628 201.72 142.412 201.12C142.208 200.52 142.106 199.908 142.106 199.284V198.942C142.106 198.294 142.208 197.67 142.412 197.07C142.628 196.458 142.94 195.918 143.348 195.45C143.768 194.97 144.284 194.592 144.896 194.316C145.508 194.028 146.216 193.884 147.02 193.884C148.076 193.884 148.958 194.118 149.666 194.586C150.386 195.042 150.926 195.648 151.286 196.404C151.646 197.148 151.826 197.952 151.826 198.816V199.716H143.168V198.186H150.26L149.486 198.942C149.486 198.318 149.396 197.784 149.216 197.34C149.036 196.896 148.76 196.554 148.388 196.314C148.028 196.074 147.572 195.954 147.02 195.954C146.468 195.954 146 196.08 145.616 196.332C145.232 196.584 144.938 196.95 144.734 197.43C144.542 197.898 144.446 198.462 144.446 199.122C144.446 199.734 144.542 200.28 144.734 200.76C144.926 201.228 145.22 201.6 145.616 201.876C146.012 202.14 146.516 202.272 147.128 202.272C147.74 202.272 148.238 202.152 148.622 201.912C149.006 201.66 149.252 201.354 149.36 200.994H151.664C151.52 201.666 151.244 202.254 150.836 202.758C150.428 203.262 149.906 203.652 149.27 203.928C148.646 204.204 147.932 204.342 147.128 204.342ZM160.591 204V192.75H163.147V204H160.591ZM156.793 193.11V190.86H166.945V193.11H156.793ZM171.326 204.306C170.198 204.306 169.322 203.934 168.698 203.19C168.086 202.446 167.78 201.342 167.78 199.878V194.208H170.282V200.094C170.282 200.694 170.45 201.174 170.786 201.534C171.122 201.882 171.578 202.056 172.154 202.056C172.73 202.056 173.198 201.87 173.558 201.498C173.93 201.126 174.116 200.622 174.116 199.986V194.208H176.618V204H174.638V199.842H174.836C174.836 200.826 174.71 201.648 174.458 202.308C174.206 202.968 173.828 203.466 173.324 203.802C172.82 204.138 172.19 204.306 171.434 204.306H171.326ZM183.74 204.126C182.84 204.126 182.096 204.012 181.508 203.784C180.932 203.544 180.5 203.148 180.212 202.596C179.924 202.032 179.78 201.276 179.78 200.328L179.798 191.472H182.138L182.12 200.49C182.12 200.97 182.246 201.342 182.498 201.606C182.762 201.858 183.134 201.984 183.614 201.984H185.144V204.126H183.74ZM178.232 196.062V194.226H185.144V196.062H178.232ZM191.89 204.342C191.026 204.342 190.264 204.204 189.604 203.928C188.944 203.652 188.386 203.28 187.93 202.812C187.474 202.332 187.126 201.792 186.886 201.192C186.658 200.592 186.544 199.968 186.544 199.32V198.942C186.544 198.27 186.664 197.634 186.904 197.034C187.156 196.422 187.51 195.882 187.966 195.414C188.434 194.934 188.998 194.562 189.658 194.298C190.318 194.022 191.062 193.884 191.89 193.884C192.718 193.884 193.462 194.022 194.122 194.298C194.782 194.562 195.34 194.934 195.796 195.414C196.264 195.882 196.618 196.422 196.858 197.034C197.098 197.634 197.218 198.27 197.218 198.942V199.32C197.218 199.968 197.098 200.592 196.858 201.192C196.63 201.792 196.288 202.332 195.832 202.812C195.376 203.28 194.818 203.652 194.158 203.928C193.498 204.204 192.742 204.342 191.89 204.342ZM191.89 202.2C192.502 202.2 193.018 202.068 193.438 201.804C193.858 201.528 194.176 201.162 194.392 200.706C194.608 200.238 194.716 199.71 194.716 199.122C194.716 198.522 194.602 197.994 194.374 197.538C194.158 197.07 193.834 196.704 193.402 196.44C192.982 196.164 192.478 196.026 191.89 196.026C191.302 196.026 190.792 196.164 190.36 196.44C189.94 196.704 189.616 197.07 189.388 197.538C189.16 197.994 189.046 198.522 189.046 199.122C189.046 199.71 189.154 200.238 189.37 200.706C189.598 201.162 189.922 201.528 190.342 201.804C190.762 202.068 191.278 202.2 191.89 202.2ZM199.408 204V194.226H201.388V198.366H201.334C201.334 196.962 201.634 195.9 202.234 195.18C202.834 194.46 203.716 194.1 204.88 194.1H205.24V196.278H204.556C203.716 196.278 203.062 196.506 202.594 196.962C202.138 197.406 201.91 198.054 201.91 198.906V204H199.408ZM207.382 204V194.226H209.884V204H207.382ZM206.014 196.098V194.226H209.884V196.098H206.014ZM208.3 193.056C207.808 193.056 207.442 192.93 207.202 192.678C206.974 192.414 206.86 192.09 206.86 191.706C206.86 191.298 206.974 190.968 207.202 190.716C207.442 190.464 207.808 190.338 208.3 190.338C208.792 190.338 209.152 190.464 209.38 190.716C209.608 190.968 209.722 191.298 209.722 191.706C209.722 192.09 209.608 192.414 209.38 192.678C209.152 192.93 208.792 193.056 208.3 193.056ZM218.69 204V201.102H218.276V197.88C218.276 197.316 218.138 196.896 217.862 196.62C217.586 196.344 217.16 196.206 216.584 196.206C216.284 196.206 215.924 196.212 215.504 196.224C215.084 196.236 214.658 196.254 214.226 196.278C213.806 196.29 213.428 196.308 213.092 196.332V194.208C213.368 194.184 213.68 194.16 214.028 194.136C214.376 194.112 214.73 194.1 215.09 194.1C215.462 194.088 215.81 194.082 216.134 194.082C217.142 194.082 217.976 194.214 218.636 194.478C219.308 194.742 219.812 195.156 220.148 195.72C220.496 196.284 220.67 197.022 220.67 197.934V204H218.69ZM215.54 204.252C214.832 204.252 214.208 204.126 213.668 203.874C213.14 203.622 212.726 203.262 212.426 202.794C212.138 202.326 211.994 201.762 211.994 201.102C211.994 200.382 212.168 199.794 212.516 199.338C212.876 198.882 213.374 198.54 214.01 198.312C214.658 198.084 215.414 197.97 216.278 197.97H218.546V199.464H216.242C215.666 199.464 215.222 199.608 214.91 199.896C214.61 200.172 214.46 200.532 214.46 200.976C214.46 201.42 214.61 201.78 214.91 202.056C215.222 202.332 215.666 202.47 216.242 202.47C216.59 202.47 216.908 202.41 217.196 202.29C217.496 202.158 217.742 201.942 217.934 201.642C218.138 201.33 218.252 200.91 218.276 200.382L218.888 201.084C218.828 201.768 218.66 202.344 218.384 202.812C218.12 203.28 217.748 203.64 217.268 203.892C216.8 204.132 216.224 204.252 215.54 204.252ZM223.476 204V190.86H225.978V204H223.476ZM222.252 192.732V190.86H225.978V192.732H222.252Z" fill="#111111"/>
<rect x="0.5" y="0.5" width="279" height="224" rx="11.5" stroke="#E6E8EB"/>
<defs>
<filter id="filter0_d_238_7902" x="53.2907" y="48.4608" width="173.419" height="138.027" filterUnits="userSpaceOnUse" color-interpolation-filters="sRGB">
<feFlood flood-opacity="0" result="BackgroundImageFix"/>
<feColorMatrix in="SourceAlpha" type="matrix" values="0 0 0 0 0 0 0 0 0 0 0 0 0 0 0 0 0 0 127 0" result="hardAlpha"/>
<feOffset dy="12.3871"/>
<feGaussianBlur stdDeviation="7.96312"/>
<feColorMatrix type="matrix" values="0 0 0 0 0.027451 0 0 0 0 0.054902 0 0 0 0 0.152941 0 0 0 0.05 0"/>
<feBlend mode="normal" in2="BackgroundImageFix" result="effect1_dropShadow_238_7902"/>
<feBlend mode="normal" in="SourceGraphic" in2="effect1_dropShadow_238_7902" result="shape"/>
</filter>
<filter id="filter1_d_238_7902" x="158.314" y="101.848" width="96.1156" height="96.1435" filterUnits="userSpaceOnUse" color-interpolation-filters="sRGB">
<feFlood flood-opacity="0" result="BackgroundImageFix"/>
<feColorMatrix in="SourceAlpha" type="matrix" values="0 0 0 0 0 0 0 0 0 0 0 0 0 0 0 0 0 0 127 0" result="hardAlpha"/>
<feOffset dy="14.7503"/>
<feGaussianBlur stdDeviation="9.48231"/>
<feColorMatrix type="matrix" values="0 0 0 0 0.027451 0 0 0 0 0.054902 0 0 0 0 0.152941 0 0 0 0.05 0"/>
<feBlend mode="normal" in2="BackgroundImageFix" result="effect1_dropShadow_238_7902"/>
<feBlend mode="normal" in="SourceGraphic" in2="effect1_dropShadow_238_7902" result="shape"/>
</filter>
<filter id="filter2_d_238_7902" x="188.987" y="132.538" width="62.4674" height="62.4773" filterUnits="userSpaceOnUse" color-interpolation-filters="sRGB">
<feFlood flood-opacity="0" result="BackgroundImageFix"/>
<feColorMatrix in="SourceAlpha" type="matrix" values="0 0 0 0 0 0 0 0 0 0 0 0 0 0 0 0 0 0 127 0" result="hardAlpha"/>
<feOffset dy="14.7503"/>
<feGaussianBlur stdDeviation="9.48231"/>
<feColorMatrix type="matrix" values="0 0 0 0 0.027451 0 0 0 0 0.054902 0 0 0 0 0.152941 0 0 0 0.05 0"/>
<feBlend mode="normal" in2="BackgroundImageFix" result="effect1_dropShadow_238_7902"/>
<feBlend mode="normal" in="SourceGraphic" in2="effect1_dropShadow_238_7902" result="shape"/>
</filter>
<filter id="filter3_d_238_7902" x="25.8671" y="83.2877" width="82.3139" height="65.4996" filterUnits="userSpaceOnUse" color-interpolation-filters="sRGB">
<feFlood flood-opacity="0" result="BackgroundImageFix"/>
<feColorMatrix in="SourceAlpha" type="matrix" values="0 0 0 0 0 0 0 0 0 0 0 0 0 0 0 0 0 0 127 0" result="hardAlpha"/>
<feOffset dy="10.8704"/>
<feGaussianBlur stdDeviation="6.98809"/>
<feColorMatrix type="matrix" values="0 0 0 0 0.027451 0 0 0 0 0.054902 0 0 0 0 0.152941 0 0 0 0.05 0"/>
<feBlend mode="normal" in2="BackgroundImageFix" result="effect1_dropShadow_238_7902"/>
<feBlend mode="normal" in="SourceGraphic" in2="effect1_dropShadow_238_7902" result="shape"/>
</filter>
<linearGradient id="paint0_linear_238_7902" x1="275.98" y1="211.549" x2="-30.7487" y2="147.688" gradientUnits="userSpaceOnUse">
<stop stop-color="#E7DEFF"/>
<stop offset="1" stop-color="#E9F7FF"/>
</linearGradient>
<clipPath id="clip0_238_7902">
<rect x="32" y="16" width="216" height="160" rx="5.56223" fill="white"/>
</clipPath>
</defs>
</svg>
