<svg width="176" height="51" viewBox="0 0 176 51" fill="none" xmlns="http://www.w3.org/2000/svg">
<path d="M169.481 51H6.51852C2.93496 51 0 48.1297 0 44.625V6.375C0 2.87034 2.93496 9.53674e-07 6.51852 9.53674e-07H169.481C173.065 9.53674e-07 176 2.87034 176 6.375V44.625C176 48.1297 173.065 51 169.481 51Z" fill="white"/>
<path d="M12.6241 9.61208C12.2412 10.0041 12.0195 10.6145 12.0195 11.405V39.6017C12.0195 40.3922 12.2412 41.0026 12.6241 41.3946L12.7186 41.4807L28.8748 25.6866V25.3137L12.7186 9.51964L12.6241 9.61208Z" fill="black"/>
<path d="M36.2114 30.9539L30.832 25.6865V25.3136L36.218 20.0462L36.3385 20.1148L42.7169 23.664C44.5372 24.6713 44.5372 26.3288 42.7169 27.3424L36.3385 30.8853L36.2114 30.9539V30.9539Z" fill="black"/>
<path d="M35.3587 31.8661L29.8522 26.4808L13.6016 42.3753C14.2062 42.9969 15.1921 43.0718 16.3133 42.4502L35.3587 31.8661" fill="black"/>
<path d="M35.3587 19.1343L16.3133 8.55016C15.1921 7.93497 14.2062 8.00987 13.6016 8.63144L29.8522 24.5195L35.3587 19.1343Z" fill="black"/>
<path d="M61.8249 13.0606C61.8249 14.1252 61.499 14.9779 60.8569 15.6138C60.1187 16.3676 59.1572 16.7469 57.979 16.7469C56.8529 16.7469 55.8914 16.3612 55.1027 15.601C54.3123 14.8297 53.918 13.883 53.918 12.7498C53.918 11.6167 54.3123 10.67 55.1027 9.90497C55.8914 9.13837 56.8529 8.75269 57.979 8.75269C58.5396 8.75269 59.0741 8.86584 59.5842 9.07622C60.0926 9.28819 60.5066 9.57506 60.8064 9.92887L60.1252 10.6014C59.6021 9.9974 58.89 9.69937 57.979 9.69937C57.1577 9.69937 56.4455 9.97987 55.8409 10.5457C55.2429 11.113 54.943 11.8477 54.943 12.7498C54.943 13.6519 55.2429 14.393 55.8409 14.9603C56.4455 15.5197 57.1577 15.8066 57.979 15.8066C58.8509 15.8066 59.5842 15.5197 60.1627 14.954C60.544 14.5794 60.7608 14.0631 60.8178 13.4032H57.979V12.4821H61.7663C61.8119 12.6813 61.8249 12.8741 61.8249 13.0606V13.0606Z" fill="black" stroke="black" stroke-width="0.0521481" stroke-miterlimit="10"/>
<path d="M67.8341 9.86645H64.2766V12.289H67.4838V13.2101H64.2766V15.6326H67.8341V16.5714H63.2695V8.92773H67.8341V9.86645Z" fill="black" stroke="black" stroke-width="0.0521481" stroke-miterlimit="10"/>
<path d="M72.0759 16.5714H71.0688V9.86645H68.8867V8.92773H74.2596V9.86645H72.0759V16.5714V16.5714Z" fill="black" stroke="black" stroke-width="0.0521481" stroke-miterlimit="10"/>
<path d="M78.1445 16.5714V8.92773H79.15V16.5714H78.1445Z" fill="black" stroke="black" stroke-width="0.0521481" stroke-miterlimit="10"/>
<path d="M83.611 16.5714H82.6121V9.86645H80.4219V8.92773H85.8013V9.86645H83.611V16.5714Z" fill="black" stroke="black" stroke-width="0.0521481" stroke-miterlimit="10"/>
<path d="M95.9666 15.5883C95.1958 16.3612 94.2408 16.7469 93.1017 16.7469C91.956 16.7469 91.0011 16.3612 90.2303 15.5883C89.4611 14.8169 89.0781 13.8702 89.0781 12.7498C89.0781 11.6294 89.4611 10.6827 90.2303 9.91134C91.0011 9.13837 91.956 8.75269 93.1017 8.75269C94.2343 8.75269 95.1892 9.13837 95.9601 9.91772C96.7358 10.6955 97.1187 11.6358 97.1187 12.7498C97.1187 13.8702 96.7358 14.8169 95.9666 15.5883ZM90.975 14.9476C91.5552 15.5197 92.2608 15.8066 93.1017 15.8066C93.9361 15.8066 94.6482 15.5197 95.2218 14.9476C95.8004 14.3754 96.0937 13.6407 96.0937 12.7498C96.0937 11.8589 95.8004 11.1242 95.2218 10.552C94.6482 9.97987 93.9361 9.693 93.1017 9.693C92.2608 9.693 91.5552 9.97987 90.975 10.552C90.3965 11.1242 90.1032 11.8589 90.1032 12.7498C90.1032 13.6407 90.3965 14.3754 90.975 14.9476V14.9476Z" fill="black" stroke="black" stroke-width="0.0521481" stroke-miterlimit="10"/>
<path d="M98.5352 16.5714V8.92773H99.7574L103.558 14.8724H103.602L103.558 13.403V8.92773H104.563V16.5714H103.514L99.5341 10.3334H99.4901L99.5341 11.8092V16.5714H98.5352V16.5714Z" fill="black" stroke="black" stroke-width="0.0521481" stroke-miterlimit="10"/>
<path d="M88.8238 27.7346C85.7618 27.7346 83.2603 30.0137 83.2603 33.1581C83.2603 36.2771 85.7618 38.5801 88.8238 38.5801C91.8924 38.5801 94.3939 36.2771 94.3939 33.1581C94.3939 30.0137 91.8924 27.7346 88.8238 27.7346ZM88.8238 36.4444C87.1437 36.4444 85.6982 35.0882 85.6982 33.1581C85.6982 31.2026 87.1437 29.8702 88.8238 29.8702C90.504 29.8702 91.956 31.2026 91.956 33.1581C91.956 35.0882 90.504 36.4444 88.8238 36.4444V36.4444ZM76.6847 27.7346C73.6161 27.7346 71.1212 30.0137 71.1212 33.1581C71.1212 36.2771 73.6161 38.5801 76.6847 38.5801C79.7517 38.5801 82.2483 36.2771 82.2483 33.1581C82.2483 30.0137 79.7517 27.7346 76.6847 27.7346ZM76.6847 36.4444C75.003 36.4444 73.5526 35.0882 73.5526 33.1581C73.5526 31.2026 75.003 29.8702 76.6847 29.8702C78.3649 29.8702 79.8104 31.2026 79.8104 33.1581C79.8104 35.0882 78.3649 36.4444 76.6847 36.4444ZM62.2397 29.3969V31.7014H67.8668C67.7022 32.9892 67.2622 33.9359 66.5875 34.5957C65.7662 35.3926 64.487 36.2771 62.2397 36.2771C58.7767 36.2771 56.065 33.5438 56.065 30.1571C56.065 26.7704 58.7767 24.0371 62.2397 24.0371C64.1121 24.0371 65.4745 24.7527 66.48 25.6803L68.1406 24.0562C66.7342 22.743 64.8634 21.7341 62.2397 21.7341C57.491 21.7341 53.5 25.5129 53.5 30.1571C53.5 34.8013 57.491 38.5801 62.2397 38.5801C64.8064 38.5801 66.7342 37.7577 68.2498 36.2149C69.8028 34.6961 70.2868 32.5605 70.2868 30.836C70.2868 30.3005 70.2412 29.8081 70.1597 29.3969H62.2397ZM121.307 31.1835C120.849 29.9706 119.436 27.7346 116.559 27.7346C113.707 27.7346 111.332 29.9324 111.332 33.1581C111.332 36.1958 113.682 38.5801 116.832 38.5801C119.379 38.5801 120.849 37.0612 121.454 36.1767L119.564 34.9447C118.933 35.8468 118.074 36.4444 116.832 36.4444C115.599 36.4444 114.714 35.8914 114.147 34.8013L121.563 31.8003L121.307 31.1835V31.1835ZM113.746 32.9892C113.682 30.8982 115.406 29.8272 116.642 29.8272C117.61 29.8272 118.431 30.3005 118.705 30.9779L113.746 32.9892V32.9892ZM107.718 38.2502H110.156V22.3127H107.718V38.2502ZM103.725 28.9427H103.644C103.096 28.3084 102.052 27.7346 100.728 27.7346C97.9514 27.7346 95.4124 30.1189 95.4124 33.1757C95.4124 36.2149 97.9514 38.5801 100.728 38.5801C102.052 38.5801 103.096 38.0015 103.644 37.3481H103.725V38.1259C103.725 40.1993 102.593 41.3133 100.766 41.3133C99.2763 41.3133 98.3523 40.2615 97.971 39.3769L95.8508 40.2424C96.4619 41.6799 98.0801 43.449 100.766 43.449C103.624 43.449 106.036 41.8042 106.036 37.8023V28.0645H103.725V28.9427V28.9427ZM100.937 36.4444C99.2567 36.4444 97.8504 35.069 97.8504 33.1757C97.8504 31.2648 99.2567 29.8702 100.937 29.8702C102.593 29.8702 103.898 31.2648 103.898 33.1757C103.898 35.069 102.593 36.4444 100.937 36.4444V36.4444ZM132.721 22.3127H126.89V38.2502H129.322V32.2114H132.721C135.421 32.2114 138.07 30.3005 138.07 27.2613C138.07 24.2236 135.415 22.3127 132.721 22.3127V22.3127ZM132.785 29.9945H129.322V24.5296H132.785C134.6 24.5296 135.637 26.0038 135.637 27.2613C135.637 28.4948 134.6 29.9945 132.785 29.9945ZM147.815 27.7043C146.058 27.7043 144.231 28.4629 143.48 30.1444L145.638 31.0289C146.102 30.1444 146.956 29.8575 147.859 29.8575C149.12 29.8575 150.399 30.5986 150.419 31.907V32.0744C149.979 31.8258 149.037 31.4576 147.878 31.4576C145.555 31.4576 143.187 32.7087 143.187 35.0435C143.187 37.1792 145.09 38.5546 147.23 38.5546C148.866 38.5546 149.769 37.8326 150.336 36.9927H150.419V38.2247H152.767V32.111C152.767 29.2853 150.61 27.7043 147.815 27.7043ZM147.521 36.4381C146.726 36.4381 145.618 36.0524 145.618 35.0882C145.618 33.8546 147 33.3813 148.196 33.3813C149.267 33.3813 149.769 33.6124 150.419 33.9168C150.228 35.3926 148.929 36.4381 147.521 36.4381V36.4381ZM161.323 28.0534L158.528 34.9623H158.445L155.556 28.0534H152.933L157.275 37.7083L154.798 43.0808H157.338L164.028 28.0534H161.323V28.0534ZM139.406 38.2502H141.844V22.3127H139.406V38.2502Z" fill="black"/>
</svg>
