<svg width="280" height="225" viewBox="0 0 280 225" fill="none" xmlns="http://www.w3.org/2000/svg">
<rect x="0.5" y="0.5" width="279" height="224" rx="11.5" fill="url(#paint0_linear_238_6894)" fill-opacity="0.4"/>
<g clip-path="url(#clip0_238_6894)">
<path d="M55.9392 38.7983L45.2512 42.6301L55.9392 46.3725V50.2043L40.6555 44.5971V40.5609L55.9392 34.9537V38.7983Z" fill="#DBDDE5"/>
<path d="M57.0713 50.3674L59.946 46.9365C60.3851 47.6488 60.9934 48.2433 61.7176 48.668C62.4418 49.0926 63.2598 49.3344 64.0999 49.3721C66.1703 49.3721 67.2648 48.1412 67.2648 45.6925V35.1773H59.3527V31H72.355V45.4044C72.355 50.8912 69.5726 53.5887 64.2978 53.5887C62.9258 53.6332 61.5617 53.3662 60.3094 52.8079C59.057 52.2497 57.9496 51.415 57.0713 50.3674Z" fill="#DBDDE5"/>
<path d="M75.7516 51.0644L77.5136 47.2663C79.6962 48.7304 82.2807 49.5243 84.9326 49.5452C88.0062 49.5452 89.2649 48.5409 89.2649 47.2019C89.2649 43.1205 76.202 45.9144 76.202 37.8159C76.202 34.095 79.2756 31.005 85.6613 31.005C88.3927 30.9356 91.0914 31.5946 93.4645 32.9105L91.8615 36.773C89.9751 35.6828 87.8292 35.0882 85.6348 35.0478C82.5479 35.0478 81.3688 36.1808 81.3688 37.5455C81.3688 41.5755 94.4317 38.8331 94.4317 46.8156C94.4317 50.4593 91.3183 53.5879 84.8929 53.5879C81.6523 53.6722 78.4627 52.7917 75.7516 51.0644Z" fill="#DBDDE5"/>
<path d="M111.979 40.5656V44.5924L97.2618 50.2043V46.3693L107.554 42.6238L97.2618 38.7888V34.9537L111.979 40.5656Z" fill="#DBDDE5"/>
<g filter="url(#filter0_d_238_6894)">
<rect x="68.2484" y="46.2919" width="149.019" height="111.764" rx="4.47057" fill="white"/>
</g>
<path d="M193.424 92.8107H81.3618V98.1782H193.424V92.8107Z" fill="#C1A1FD"/>
<path d="M193.424 113.088H127.26V118.456H193.424V113.088Z" fill="#C1A1FD"/>
<path d="M193.424 123.227H127.259V128.594H193.424V123.227Z" fill="#C1A1FD"/>
<path d="M182.694 133.365H127.259V138.733H182.694V133.365Z" fill="#C1A1FD"/>
<path d="M116.53 73.1295H81.3618V79.0935H116.53V73.1295Z" fill="#5354D1"/>
<path d="M193.424 82.6719H81.3618V88.0394H193.424V82.6719Z" fill="#5354D1"/>
<path d="M83.5501 61.4184C84.8736 61.4184 85.9465 60.3405 85.9465 59.0108C85.9465 57.6811 84.8736 56.6031 83.5501 56.6031C82.2266 56.6031 81.1537 57.6811 81.1537 59.0108C81.1537 60.3405 82.2266 61.4184 83.5501 61.4184Z" fill="#24285B"/>
<path d="M90.9393 61.4184C92.3731 61.4184 93.5354 60.3405 93.5354 59.0108C93.5354 57.6811 92.3731 56.6031 90.9393 56.6031C89.5055 56.6031 88.3431 57.6811 88.3431 59.0108C88.3431 60.3405 89.5055 61.4184 90.9393 61.4184Z" fill="#5354D1"/>
<path d="M97.9289 61.4184C99.2524 61.4184 100.325 60.3405 100.325 59.0108C100.325 57.6811 99.2524 56.6031 97.9289 56.6031C96.6054 56.6031 95.5325 57.6811 95.5325 59.0108C95.5325 60.3405 96.6054 61.4184 97.9289 61.4184Z" fill="#37D5C7"/>
<path d="M92.0707 141.068C89.6358 141.068 87.6973 140.524 86.2553 139.436C84.8369 138.349 84.1277 136.552 84.1277 134.046V128.974C84.1277 128.241 83.9031 127.709 83.454 127.378C83.0048 127.023 82.3074 126.846 81.3618 126.846V121.172C82.3074 121.172 83.0048 121.006 83.454 120.675C83.9031 120.32 84.1277 119.777 84.1277 119.044V114.114C84.1277 111.584 84.8369 109.787 86.2553 108.723C87.6973 107.635 89.6358 107.092 92.0707 107.092H92.9927V112.482H92.0707C91.3852 112.482 90.9006 112.636 90.6169 112.943C90.3568 113.227 90.2268 113.641 90.2268 114.185V119.434C90.2268 120.876 89.9077 121.928 89.2694 122.59C88.6548 123.229 87.721 123.607 86.4681 123.725V124.293C87.721 124.387 88.6548 124.765 89.2694 125.427C89.9077 126.066 90.2268 127.118 90.2268 128.584V133.975C90.2268 134.519 90.3568 134.932 90.6169 135.216C90.9006 135.523 91.3852 135.677 92.0707 135.677H92.9927V141.068H92.0707Z" fill="#37D5C7"/>
<path d="M103.437 141.068C105.872 141.068 107.799 140.524 109.217 139.436C110.659 138.349 111.38 136.552 111.38 134.046V128.974C111.38 128.241 111.605 127.709 112.054 127.378C112.503 127.023 113.2 126.846 114.146 126.846V121.172C113.2 121.172 112.503 121.006 112.054 120.675C111.605 120.32 111.38 119.777 111.38 119.044V114.114C111.38 111.584 110.659 109.787 109.217 108.723C107.799 107.635 105.872 107.092 103.437 107.092H102.515V112.482H103.437C104.123 112.482 104.595 112.636 104.855 112.943C105.139 113.227 105.281 113.641 105.281 114.185V119.434C105.281 120.876 105.588 121.928 106.203 122.59C106.841 123.229 107.787 123.607 109.04 123.725V124.293C107.787 124.387 106.841 124.765 106.203 125.427C105.588 126.066 105.281 127.118 105.281 128.584V133.975C105.281 134.519 105.139 134.932 104.855 135.216C104.595 135.523 104.123 135.677 103.437 135.677H102.515V141.068H103.437Z" fill="#37D5C7"/>
<g filter="url(#filter1_d_238_6894)">
<path d="M239.969 63.8625H187.773C185.93 63.8625 184.436 65.3567 184.436 67.1999V106.967C184.436 108.811 185.93 110.305 187.773 110.305H239.969C241.812 110.305 243.306 108.811 243.306 106.967V67.1999C243.306 65.3567 241.812 63.8625 239.969 63.8625Z" fill="white"/>
</g>
<path fill-rule="evenodd" clip-rule="evenodd" d="M215.178 71.7874C222.897 71.7874 229.155 78.0448 229.155 85.7637H215.178V71.7874Z" fill="#37D5C7"/>
<path d="M227.672 87.2464C227.672 90.0107 226.852 92.7129 225.317 95.0113C223.781 97.3097 221.598 99.1011 219.044 100.159C216.49 101.217 213.68 101.494 210.969 100.954C208.258 100.415 205.768 99.0838 203.813 97.1292C201.858 95.1746 200.527 92.6842 199.988 89.9731C199.449 87.2619 199.725 84.4517 200.783 81.8979C201.841 79.344 203.632 77.1612 205.931 75.6255C208.229 74.0897 210.931 73.27 213.696 73.27V87.2464H227.672Z" fill="#5354D0"/>
</g>
<path d="M26.12 204V190.77H28.676V204H26.12ZM34.148 204L30.116 198.276H32.978L37.136 204H34.148ZM27.92 199.608V197.538H31.268C31.736 197.538 32.138 197.442 32.474 197.25C32.822 197.058 33.092 196.788 33.284 196.44C33.476 196.092 33.572 195.696 33.572 195.252C33.572 194.796 33.476 194.394 33.284 194.046C33.092 193.698 32.822 193.428 32.474 193.236C32.138 193.044 31.736 192.948 31.268 192.948H27.92V190.77H30.998C32.054 190.77 32.966 190.926 33.734 191.238C34.514 191.55 35.114 192.024 35.534 192.66C35.954 193.296 36.164 194.094 36.164 195.054V195.342C36.164 196.314 35.948 197.112 35.516 197.736C35.096 198.36 34.502 198.828 33.734 199.14C32.966 199.452 32.054 199.608 30.998 199.608H27.92ZM43.0753 204.342C42.2353 204.342 41.4973 204.198 40.8613 203.91C40.2373 203.622 39.7153 203.238 39.2953 202.758C38.8873 202.266 38.5753 201.72 38.3593 201.12C38.1553 200.52 38.0533 199.908 38.0533 199.284V198.942C38.0533 198.294 38.1553 197.67 38.3593 197.07C38.5753 196.458 38.8873 195.918 39.2953 195.45C39.7153 194.97 40.2313 194.592 40.8433 194.316C41.4553 194.028 42.1633 193.884 42.9673 193.884C44.0233 193.884 44.9053 194.118 45.6133 194.586C46.3333 195.042 46.8733 195.648 47.2333 196.404C47.5933 197.148 47.7733 197.952 47.7733 198.816V199.716H39.1153V198.186H46.2073L45.4333 198.942C45.4333 198.318 45.3433 197.784 45.1633 197.34C44.9833 196.896 44.7073 196.554 44.3353 196.314C43.9753 196.074 43.5193 195.954 42.9673 195.954C42.4153 195.954 41.9473 196.08 41.5633 196.332C41.1793 196.584 40.8853 196.95 40.6813 197.43C40.4893 197.898 40.3933 198.462 40.3933 199.122C40.3933 199.734 40.4893 200.28 40.6813 200.76C40.8733 201.228 41.1673 201.6 41.5633 201.876C41.9593 202.14 42.4633 202.272 43.0753 202.272C43.6873 202.272 44.1853 202.152 44.5693 201.912C44.9533 201.66 45.1993 201.354 45.3073 200.994H47.6113C47.4673 201.666 47.1913 202.254 46.7833 202.758C46.3753 203.262 45.8533 203.652 45.2173 203.928C44.5933 204.204 43.8793 204.342 43.0753 204.342ZM55.7854 204V201.102H55.3714V197.88C55.3714 197.316 55.2334 196.896 54.9574 196.62C54.6814 196.344 54.2554 196.206 53.6794 196.206C53.3794 196.206 53.0194 196.212 52.5994 196.224C52.1794 196.236 51.7534 196.254 51.3214 196.278C50.9014 196.29 50.5234 196.308 50.1874 196.332V194.208C50.4634 194.184 50.7754 194.16 51.1234 194.136C51.4714 194.112 51.8254 194.1 52.1854 194.1C52.5574 194.088 52.9054 194.082 53.2294 194.082C54.2374 194.082 55.0714 194.214 55.7314 194.478C56.4034 194.742 56.9074 195.156 57.2434 195.72C57.5914 196.284 57.7654 197.022 57.7654 197.934V204H55.7854ZM52.6354 204.252C51.9274 204.252 51.3034 204.126 50.7634 203.874C50.2354 203.622 49.8214 203.262 49.5214 202.794C49.2334 202.326 49.0894 201.762 49.0894 201.102C49.0894 200.382 49.2634 199.794 49.6114 199.338C49.9714 198.882 50.4694 198.54 51.1054 198.312C51.7534 198.084 52.5094 197.97 53.3734 197.97H55.6414V199.464H53.3374C52.7614 199.464 52.3174 199.608 52.0054 199.896C51.7054 200.172 51.5554 200.532 51.5554 200.976C51.5554 201.42 51.7054 201.78 52.0054 202.056C52.3174 202.332 52.7614 202.47 53.3374 202.47C53.6854 202.47 54.0034 202.41 54.2914 202.29C54.5914 202.158 54.8374 201.942 55.0294 201.642C55.2334 201.33 55.3474 200.91 55.3714 200.382L55.9834 201.084C55.9234 201.768 55.7554 202.344 55.4794 202.812C55.2154 203.28 54.8434 203.64 54.3634 203.892C53.8954 204.132 53.3194 204.252 52.6354 204.252ZM64.4954 204.324C63.8114 204.324 63.1814 204.198 62.6054 203.946C62.0294 203.694 61.5314 203.34 61.1114 202.884C60.6914 202.428 60.3674 201.9 60.1394 201.3C59.9114 200.688 59.7974 200.028 59.7974 199.32V198.942C59.7974 198.246 59.9054 197.592 60.1214 196.98C60.3494 196.368 60.6614 195.834 61.0574 195.378C61.4654 194.922 61.9514 194.568 62.5154 194.316C63.0914 194.052 63.7274 193.92 64.4234 193.92C65.1914 193.92 65.8634 194.088 66.4394 194.424C67.0274 194.748 67.4954 195.24 67.8434 195.9C68.1914 196.56 68.3834 197.388 68.4194 198.384L67.6814 197.52V190.86H70.1834V204H68.2034V199.842H68.6354C68.5994 200.838 68.3954 201.672 68.0234 202.344C67.6514 203.004 67.1594 203.502 66.5474 203.838C65.9474 204.162 65.2634 204.324 64.4954 204.324ZM65.0534 202.218C65.5454 202.218 65.9954 202.11 66.4034 201.894C66.8114 201.666 67.1354 201.342 67.3754 200.922C67.6274 200.49 67.7534 199.986 67.7534 199.41V198.69C67.7534 198.114 67.6274 197.634 67.3754 197.25C67.1234 196.854 66.7934 196.554 66.3854 196.35C65.9774 196.134 65.5334 196.026 65.0534 196.026C64.5134 196.026 64.0334 196.158 63.6134 196.422C63.2054 196.674 62.8814 197.034 62.6414 197.502C62.4134 197.97 62.2994 198.516 62.2994 199.14C62.2994 199.764 62.4194 200.31 62.6594 200.778C62.8994 201.234 63.2234 201.588 63.6314 201.84C64.0514 202.092 64.5254 202.218 65.0534 202.218ZM81.1641 204.126C80.2641 204.126 79.5201 204.012 78.9321 203.784C78.3561 203.544 77.9241 203.148 77.6361 202.596C77.3481 202.032 77.2041 201.276 77.2041 200.328L77.2221 191.472H79.5621L79.5441 200.49C79.5441 200.97 79.6701 201.342 79.9221 201.606C80.1861 201.858 80.5581 201.984 81.0381 201.984H82.5681V204.126H81.1641ZM75.6561 196.062V194.226H82.5681V196.062H75.6561ZM84.6681 204V190.86H87.1701V198.528H86.7381C86.7381 197.544 86.8641 196.71 87.1161 196.026C87.3681 195.342 87.7401 194.82 88.2321 194.46C88.7361 194.1 89.3721 193.92 90.1401 193.92H90.2481C91.3641 193.92 92.2101 194.304 92.7861 195.072C93.3621 195.84 93.6501 196.956 93.6501 198.42V204H91.1481V198.186C91.1481 197.562 90.9681 197.07 90.6081 196.71C90.2601 196.35 89.7981 196.17 89.2221 196.17C88.6101 196.17 88.1121 196.374 87.7281 196.782C87.3561 197.178 87.1701 197.7 87.1701 198.348V204H84.6681ZM100.714 204.342C99.874 204.342 99.136 204.198 98.5 203.91C97.876 203.622 97.354 203.238 96.934 202.758C96.526 202.266 96.214 201.72 95.998 201.12C95.794 200.52 95.692 199.908 95.692 199.284V198.942C95.692 198.294 95.794 197.67 95.998 197.07C96.214 196.458 96.526 195.918 96.934 195.45C97.354 194.97 97.87 194.592 98.482 194.316C99.094 194.028 99.802 193.884 100.606 193.884C101.662 193.884 102.544 194.118 103.252 194.586C103.972 195.042 104.512 195.648 104.872 196.404C105.232 197.148 105.412 197.952 105.412 198.816V199.716H96.754V198.186H103.846L103.072 198.942C103.072 198.318 102.982 197.784 102.802 197.34C102.622 196.896 102.346 196.554 101.974 196.314C101.614 196.074 101.158 195.954 100.606 195.954C100.054 195.954 99.586 196.08 99.202 196.332C98.818 196.584 98.524 196.95 98.32 197.43C98.128 197.898 98.032 198.462 98.032 199.122C98.032 199.734 98.128 200.28 98.32 200.76C98.512 201.228 98.806 201.6 99.202 201.876C99.598 202.14 100.102 202.272 100.714 202.272C101.326 202.272 101.824 202.152 102.208 201.912C102.592 201.66 102.838 201.354 102.946 200.994H105.25C105.106 201.666 104.83 202.254 104.422 202.758C104.014 203.262 103.492 203.652 102.856 203.928C102.232 204.204 101.518 204.342 100.714 204.342ZM113.781 204.072V201.696H116.499C117.183 201.696 117.789 201.594 118.317 201.39C118.857 201.174 119.313 200.874 119.685 200.49C120.057 200.106 120.339 199.656 120.531 199.14C120.735 198.612 120.837 198.03 120.837 197.394C120.837 196.734 120.735 196.146 120.531 195.63C120.339 195.102 120.057 194.652 119.685 194.28C119.313 193.908 118.857 193.626 118.317 193.434C117.789 193.242 117.183 193.146 116.499 193.146H113.781V190.77H116.337C117.525 190.77 118.563 190.944 119.451 191.292C120.339 191.64 121.077 192.12 121.665 192.732C122.253 193.332 122.691 194.022 122.979 194.802C123.279 195.57 123.429 196.368 123.429 197.196V197.592C123.429 198.384 123.279 199.164 122.979 199.932C122.691 200.7 122.253 201.396 121.665 202.02C121.077 202.644 120.339 203.142 119.451 203.514C118.563 203.886 117.525 204.072 116.337 204.072H113.781ZM111.585 204.072V190.77H114.141V204.072H111.585ZM130.218 204.342C129.354 204.342 128.592 204.204 127.932 203.928C127.272 203.652 126.714 203.28 126.258 202.812C125.802 202.332 125.454 201.792 125.214 201.192C124.986 200.592 124.872 199.968 124.872 199.32V198.942C124.872 198.27 124.992 197.634 125.232 197.034C125.484 196.422 125.838 195.882 126.294 195.414C126.762 194.934 127.326 194.562 127.986 194.298C128.646 194.022 129.39 193.884 130.218 193.884C131.046 193.884 131.79 194.022 132.45 194.298C133.11 194.562 133.668 194.934 134.124 195.414C134.592 195.882 134.946 196.422 135.186 197.034C135.426 197.634 135.546 198.27 135.546 198.942V199.32C135.546 199.968 135.426 200.592 135.186 201.192C134.958 201.792 134.616 202.332 134.16 202.812C133.704 203.28 133.146 203.652 132.486 203.928C131.826 204.204 131.07 204.342 130.218 204.342ZM130.218 202.2C130.83 202.2 131.346 202.068 131.766 201.804C132.186 201.528 132.504 201.162 132.72 200.706C132.936 200.238 133.044 199.71 133.044 199.122C133.044 198.522 132.93 197.994 132.702 197.538C132.486 197.07 132.162 196.704 131.73 196.44C131.31 196.164 130.806 196.026 130.218 196.026C129.63 196.026 129.12 196.164 128.688 196.44C128.268 196.704 127.944 197.07 127.716 197.538C127.488 197.994 127.374 198.522 127.374 199.122C127.374 199.71 127.482 200.238 127.698 200.706C127.926 201.162 128.25 201.528 128.67 201.804C129.09 202.068 129.606 202.2 130.218 202.2ZM142.074 204.342C141.222 204.342 140.484 204.198 139.86 203.91C139.248 203.622 138.732 203.238 138.312 202.758C137.904 202.278 137.598 201.738 137.394 201.138C137.19 200.538 137.088 199.926 137.088 199.302V198.96C137.088 198.3 137.19 197.67 137.394 197.07C137.61 196.458 137.928 195.918 138.348 195.45C138.768 194.97 139.284 194.592 139.896 194.316C140.52 194.028 141.24 193.884 142.056 193.884C142.908 193.884 143.67 194.052 144.342 194.388C145.014 194.712 145.548 195.168 145.944 195.756C146.352 196.344 146.58 197.028 146.628 197.808H144.198C144.138 197.304 143.922 196.884 143.55 196.548C143.19 196.212 142.692 196.044 142.056 196.044C141.504 196.044 141.042 196.176 140.67 196.44C140.31 196.704 140.04 197.07 139.86 197.538C139.68 197.994 139.59 198.522 139.59 199.122C139.59 199.698 139.674 200.22 139.842 200.688C140.022 201.156 140.292 201.522 140.652 201.786C141.024 202.05 141.498 202.182 142.074 202.182C142.506 202.182 142.878 202.104 143.19 201.948C143.502 201.792 143.748 201.576 143.928 201.3C144.12 201.024 144.24 200.712 144.288 200.364H146.718C146.67 201.156 146.436 201.852 146.016 202.452C145.608 203.04 145.062 203.502 144.378 203.838C143.706 204.174 142.938 204.342 142.074 204.342ZM152.053 204.306C150.925 204.306 150.049 203.934 149.425 203.19C148.813 202.446 148.507 201.342 148.507 199.878V194.208H151.009V200.094C151.009 200.694 151.177 201.174 151.513 201.534C151.849 201.882 152.305 202.056 152.881 202.056C153.457 202.056 153.925 201.87 154.285 201.498C154.657 201.126 154.843 200.622 154.843 199.986V194.208H157.345V204H155.365V199.842H155.563C155.563 200.826 155.437 201.648 155.185 202.308C154.933 202.968 154.555 203.466 154.051 203.802C153.547 204.138 152.917 204.306 152.161 204.306H152.053ZM160.219 204V194.226H162.199V198.42H162.019C162.019 197.436 162.145 196.614 162.397 195.954C162.649 195.282 163.021 194.778 163.513 194.442C164.017 194.094 164.641 193.92 165.385 193.92H165.493C166.249 193.92 166.873 194.094 167.365 194.442C167.869 194.778 168.241 195.282 168.481 195.954C168.733 196.614 168.859 197.436 168.859 198.42H168.229C168.229 197.436 168.355 196.614 168.607 195.954C168.871 195.282 169.249 194.778 169.741 194.442C170.245 194.094 170.869 193.92 171.613 193.92H171.721C172.477 193.92 173.107 194.094 173.611 194.442C174.115 194.778 174.493 195.282 174.745 195.954C175.009 196.614 175.141 197.436 175.141 198.42V204H172.639V198.186C172.639 197.574 172.483 197.088 172.171 196.728C171.859 196.356 171.415 196.17 170.839 196.17C170.263 196.17 169.801 196.362 169.453 196.746C169.105 197.118 168.931 197.622 168.931 198.258V204H166.429V198.186C166.429 197.574 166.273 197.088 165.961 196.728C165.649 196.356 165.205 196.17 164.629 196.17C164.053 196.17 163.591 196.362 163.243 196.746C162.895 197.118 162.721 197.622 162.721 198.258V204H160.219ZM182.189 204.342C181.349 204.342 180.611 204.198 179.975 203.91C179.351 203.622 178.829 203.238 178.409 202.758C178.001 202.266 177.689 201.72 177.473 201.12C177.269 200.52 177.167 199.908 177.167 199.284V198.942C177.167 198.294 177.269 197.67 177.473 197.07C177.689 196.458 178.001 195.918 178.409 195.45C178.829 194.97 179.345 194.592 179.957 194.316C180.569 194.028 181.277 193.884 182.081 193.884C183.137 193.884 184.019 194.118 184.727 194.586C185.447 195.042 185.987 195.648 186.347 196.404C186.707 197.148 186.887 197.952 186.887 198.816V199.716H178.229V198.186H185.321L184.547 198.942C184.547 198.318 184.457 197.784 184.277 197.34C184.097 196.896 183.821 196.554 183.449 196.314C183.089 196.074 182.633 195.954 182.081 195.954C181.529 195.954 181.061 196.08 180.677 196.332C180.293 196.584 179.999 196.95 179.795 197.43C179.603 197.898 179.507 198.462 179.507 199.122C179.507 199.734 179.603 200.28 179.795 200.76C179.987 201.228 180.281 201.6 180.677 201.876C181.073 202.14 181.577 202.272 182.189 202.272C182.801 202.272 183.299 202.152 183.683 201.912C184.067 201.66 184.313 201.354 184.421 200.994H186.725C186.581 201.666 186.305 202.254 185.897 202.758C185.489 203.262 184.967 203.652 184.331 203.928C183.707 204.204 182.993 204.342 182.189 204.342ZM188.977 204V194.226H190.957V198.42H190.777C190.777 197.424 190.909 196.596 191.173 195.936C191.437 195.264 191.827 194.76 192.343 194.424C192.871 194.088 193.525 193.92 194.305 193.92H194.413C195.577 193.92 196.459 194.298 197.059 195.054C197.659 195.798 197.959 196.914 197.959 198.402V204H195.457V198.186C195.457 197.586 195.283 197.1 194.935 196.728C194.599 196.356 194.131 196.17 193.531 196.17C192.919 196.17 192.421 196.362 192.037 196.746C191.665 197.118 191.479 197.622 191.479 198.258V204H188.977ZM204.897 204.126C203.997 204.126 203.253 204.012 202.665 203.784C202.089 203.544 201.657 203.148 201.369 202.596C201.081 202.032 200.937 201.276 200.937 200.328L200.955 191.472H203.295L203.277 200.49C203.277 200.97 203.403 201.342 203.655 201.606C203.919 201.858 204.291 201.984 204.771 201.984H206.301V204.126H204.897ZM199.389 196.062V194.226H206.301V196.062H199.389ZM214.287 204V201.102H213.873V197.88C213.873 197.316 213.735 196.896 213.459 196.62C213.183 196.344 212.757 196.206 212.181 196.206C211.881 196.206 211.521 196.212 211.101 196.224C210.681 196.236 210.255 196.254 209.823 196.278C209.403 196.29 209.025 196.308 208.689 196.332V194.208C208.965 194.184 209.277 194.16 209.625 194.136C209.973 194.112 210.327 194.1 210.687 194.1C211.059 194.088 211.407 194.082 211.731 194.082C212.739 194.082 213.573 194.214 214.233 194.478C214.905 194.742 215.409 195.156 215.745 195.72C216.093 196.284 216.267 197.022 216.267 197.934V204H214.287ZM211.137 204.252C210.429 204.252 209.805 204.126 209.265 203.874C208.737 203.622 208.323 203.262 208.023 202.794C207.735 202.326 207.591 201.762 207.591 201.102C207.591 200.382 207.765 199.794 208.113 199.338C208.473 198.882 208.971 198.54 209.607 198.312C210.255 198.084 211.011 197.97 211.875 197.97H214.143V199.464H211.839C211.263 199.464 210.819 199.608 210.507 199.896C210.207 200.172 210.057 200.532 210.057 200.976C210.057 201.42 210.207 201.78 210.507 202.056C210.819 202.332 211.263 202.47 211.839 202.47C212.187 202.47 212.505 202.41 212.793 202.29C213.093 202.158 213.339 201.942 213.531 201.642C213.735 201.33 213.849 200.91 213.873 200.382L214.485 201.084C214.425 201.768 214.257 202.344 213.981 202.812C213.717 203.28 213.345 203.64 212.865 203.892C212.397 204.132 211.821 204.252 211.137 204.252ZM223.195 204.126C222.295 204.126 221.551 204.012 220.963 203.784C220.387 203.544 219.955 203.148 219.667 202.596C219.379 202.032 219.235 201.276 219.235 200.328L219.253 191.472H221.593L221.575 200.49C221.575 200.97 221.701 201.342 221.953 201.606C222.217 201.858 222.589 201.984 223.069 201.984H224.599V204.126H223.195ZM217.687 196.062V194.226H224.599V196.062H217.687ZM227.167 204V194.226H229.669V204H227.167ZM225.799 196.098V194.226H229.669V196.098H225.799ZM228.085 193.056C227.593 193.056 227.227 192.93 226.987 192.678C226.759 192.414 226.645 192.09 226.645 191.706C226.645 191.298 226.759 190.968 226.987 190.716C227.227 190.464 227.593 190.338 228.085 190.338C228.577 190.338 228.937 190.464 229.165 190.716C229.393 190.968 229.507 191.298 229.507 191.706C229.507 192.09 229.393 192.414 229.165 192.678C228.937 192.93 228.577 193.056 228.085 193.056ZM237.251 204.342C236.387 204.342 235.625 204.204 234.965 203.928C234.305 203.652 233.747 203.28 233.291 202.812C232.835 202.332 232.487 201.792 232.247 201.192C232.019 200.592 231.905 199.968 231.905 199.32V198.942C231.905 198.27 232.025 197.634 232.265 197.034C232.517 196.422 232.871 195.882 233.327 195.414C233.795 194.934 234.359 194.562 235.019 194.298C235.679 194.022 236.423 193.884 237.251 193.884C238.079 193.884 238.823 194.022 239.483 194.298C240.143 194.562 240.701 194.934 241.157 195.414C241.625 195.882 241.979 196.422 242.219 197.034C242.459 197.634 242.579 198.27 242.579 198.942V199.32C242.579 199.968 242.459 200.592 242.219 201.192C241.991 201.792 241.649 202.332 241.193 202.812C240.737 203.28 240.179 203.652 239.519 203.928C238.859 204.204 238.103 204.342 237.251 204.342ZM237.251 202.2C237.863 202.2 238.379 202.068 238.799 201.804C239.219 201.528 239.537 201.162 239.753 200.706C239.969 200.238 240.077 199.71 240.077 199.122C240.077 198.522 239.963 197.994 239.735 197.538C239.519 197.07 239.195 196.704 238.763 196.44C238.343 196.164 237.839 196.026 237.251 196.026C236.663 196.026 236.153 196.164 235.721 196.44C235.301 196.704 234.977 197.07 234.749 197.538C234.521 197.994 234.407 198.522 234.407 199.122C234.407 199.71 234.515 200.238 234.731 200.706C234.959 201.162 235.283 201.528 235.703 201.804C236.123 202.068 236.639 202.2 237.251 202.2ZM244.77 204V194.226H246.75V198.42H246.57C246.57 197.424 246.702 196.596 246.966 195.936C247.23 195.264 247.62 194.76 248.136 194.424C248.664 194.088 249.318 193.92 250.098 193.92H250.206C251.37 193.92 252.252 194.298 252.852 195.054C253.452 195.798 253.752 196.914 253.752 198.402V204H251.25V198.186C251.25 197.586 251.076 197.1 250.728 196.728C250.392 196.356 249.924 196.17 249.324 196.17C248.712 196.17 248.214 196.362 247.83 196.746C247.458 197.118 247.272 197.622 247.272 198.258V204H244.77Z" fill="#111111"/>
<rect x="0.5" y="0.5" width="279" height="224" rx="11.5" stroke="#E6E8EB"/>
<defs>
<filter id="filter0_d_238_6894" x="51.4838" y="42.5664" width="182.548" height="145.294" filterUnits="userSpaceOnUse" color-interpolation-filters="sRGB">
<feFlood flood-opacity="0" result="BackgroundImageFix"/>
<feColorMatrix in="SourceAlpha" type="matrix" values="0 0 0 0 0 0 0 0 0 0 0 0 0 0 0 0 0 0 127 0" result="hardAlpha"/>
<feOffset dy="13.0392"/>
<feGaussianBlur stdDeviation="8.38232"/>
<feColorMatrix type="matrix" values="0 0 0 0 0.027451 0 0 0 0 0.054902 0 0 0 0 0.152941 0 0 0 0.05 0"/>
<feBlend mode="normal" in2="BackgroundImageFix" result="effect1_dropShadow_238_6894"/>
<feBlend mode="normal" in="SourceGraphic" in2="effect1_dropShadow_238_6894" result="shape"/>
</filter>
<filter id="filter1_d_238_6894" x="170.464" y="60.7578" width="86.813" height="74.3845" filterUnits="userSpaceOnUse" color-interpolation-filters="sRGB">
<feFlood flood-opacity="0" result="BackgroundImageFix"/>
<feColorMatrix in="SourceAlpha" type="matrix" values="0 0 0 0 0 0 0 0 0 0 0 0 0 0 0 0 0 0 127 0" result="hardAlpha"/>
<feOffset dy="10.8665"/>
<feGaussianBlur stdDeviation="6.98559"/>
<feColorMatrix type="matrix" values="0 0 0 0 0.027451 0 0 0 0 0.054902 0 0 0 0 0.152941 0 0 0 0.05 0"/>
<feBlend mode="normal" in2="BackgroundImageFix" result="effect1_dropShadow_238_6894"/>
<feBlend mode="normal" in="SourceGraphic" in2="effect1_dropShadow_238_6894" result="shape"/>
</filter>
<linearGradient id="paint0_linear_238_6894" x1="275.98" y1="211.549" x2="-30.7487" y2="147.688" gradientUnits="userSpaceOnUse">
<stop stop-color="#E7DEFF"/>
<stop offset="1" stop-color="#E9F7FF"/>
</linearGradient>
<clipPath id="clip0_238_6894">
<rect x="32" y="16" width="216" height="160" rx="5.56223" fill="white"/>
</clipPath>
</defs>
</svg>
