<svg width="176" height="42" viewBox="0 0 176 42" fill="none" xmlns="http://www.w3.org/2000/svg">
<path d="M8.4266 12.1076C7.81578 11.141 8.17827 9.90499 9.23624 9.34691L17.8565 4.79984C18.9145 4.24178 20.2673 4.57295 20.878 5.53955C21.4889 6.50614 21.1264 7.74212 20.0684 8.30018L11.4482 12.8472C10.3902 13.4054 9.03741 13.0742 8.4266 12.1076Z" fill="#37D5C7"/>
<path d="M14.5148 36.899C13.9041 35.9324 14.2665 34.6964 15.3244 34.1384L23.9448 29.5912C25.0027 29.0332 26.3554 29.3644 26.9663 30.3309C27.5772 31.2975 27.2147 32.5335 26.1567 33.0916L17.5364 37.6387C16.4784 38.1968 15.1257 37.8656 14.5148 36.899Z" fill="#37D5C7"/>
<path d="M18.8938 20.5877C18.2829 19.6212 18.6454 18.3852 19.7034 17.8271L31.676 11.5117C32.734 10.9536 34.0867 11.2848 34.6975 12.2514C35.3083 13.218 34.9459 14.454 33.8879 15.012L21.9153 21.3275C20.8574 21.8855 19.5045 21.5543 18.8938 20.5877Z" fill="#37D5C7"/>
<path d="M1.17477 29.9343C0.563952 28.9677 0.926437 27.7317 1.9844 27.1737L14.9148 20.353C15.9727 19.795 17.3256 20.1262 17.9363 21.0928C18.5472 22.0593 18.1847 23.2953 17.1267 23.8534L4.19635 30.674C3.13839 31.2321 1.78559 30.9009 1.17477 29.9343Z" fill="#37D5C7"/>
<path d="M20.8435 12.5583C20.2326 11.5918 20.5951 10.3558 21.6531 9.79771L24.0476 8.53464C25.1056 7.97658 26.4584 8.30776 27.0692 9.27434C27.6801 10.2409 27.3175 11.4769 26.2596 12.035L23.8651 13.298C22.8071 13.8561 21.4543 13.5249 20.8435 12.5583Z" fill="#37D5C7"/>
<path d="M27.9235 29.8257C27.3126 28.8591 27.6751 27.6231 28.7331 27.065L31.1276 25.802C32.1856 25.2439 33.5384 25.5751 34.1491 26.5417C34.76 27.5083 34.3975 28.7443 33.3395 29.3023L30.945 30.5654C29.887 31.1234 28.5342 30.7922 27.9235 29.8257Z" fill="#37D5C7"/>
<path d="M7.84518 33.4166C7.23436 32.45 7.59684 31.214 8.65481 30.656L11.0493 29.3929C12.1073 28.8348 13.4601 29.166 14.0708 30.1326C14.6817 31.0992 14.3192 32.3352 13.2612 32.8933L10.8668 34.1563C9.80881 34.7144 8.45599 34.3832 7.84518 33.4166Z" fill="#37D5C7"/>
<path d="M1.24337 15.8969C0.632556 14.9303 0.99504 13.6943 2.05301 13.1363L4.44751 11.8731C5.50547 11.3151 6.85828 11.6463 7.46911 12.6128C8.07992 13.5794 7.71744 14.8154 6.65947 15.3734L4.26496 16.6365C3.207 17.1947 1.85418 16.8635 1.24337 15.8969Z" fill="#37D5C7"/>
<path d="M1.20846 22.9157C0.597644 21.9491 0.960128 20.7131 2.01809 20.1551L16.8641 12.324C17.9221 11.7659 19.2748 12.0971 19.8857 13.0637C20.4964 14.0303 20.134 15.2663 19.0761 15.8243L4.23004 23.6553C3.17209 24.2135 1.81928 23.8823 1.20846 22.9157Z" fill="#37D5C7"/>
<path d="M15.0286 29.6274C14.4178 28.6608 14.7804 27.4248 15.8383 26.8668L30.6843 19.0357C31.7422 18.4776 33.095 18.8088 33.7059 19.7754C34.3166 20.742 33.9541 21.978 32.8963 22.536L18.0503 30.3671C16.9923 30.9252 15.6395 30.594 15.0286 29.6274Z" fill="#37D5C7"/>
<path fill-rule="evenodd" clip-rule="evenodd" d="M73.6262 31.7507C71.7877 30.756 70.3323 29.3854 69.2668 27.6481L69.2629 27.6418C68.2216 25.8953 67.7092 23.911 67.7092 21.7055C67.7092 19.4813 68.1902 17.4997 69.1733 15.7788L69.175 15.7757C70.1808 14.0393 71.5636 12.6655 73.3197 11.6671C75.0873 10.6622 77.1138 10.1678 79.3778 10.1678C81.6089 10.1678 83.5808 10.647 85.268 11.628C86.9722 12.5765 88.288 13.9031 89.2099 15.5933C90.1315 17.2831 90.584 19.1947 90.584 21.3139C90.584 21.8706 90.3913 22.3734 89.9714 22.7647L89.9592 22.7761L89.9463 22.7868C89.5234 23.1415 88.9924 23.2963 88.4142 23.2963H72.1893C72.3472 24.1489 72.6376 24.9269 73.057 25.6343C73.7573 26.7687 74.6983 27.6557 75.8855 28.305C77.0615 28.9481 78.4291 29.2782 80.0082 29.2782C80.941 29.2782 81.8781 29.1337 82.8218 28.8412C83.8039 28.5192 84.5493 28.135 85.0849 27.7039L85.0982 27.6933C85.5157 27.3749 86.0043 27.2075 86.5415 27.2028C87.0725 27.172 87.5679 27.3007 87.9839 27.6108L88.002 27.6244L88.0191 27.639C88.4743 28.0306 88.7692 28.5155 88.7766 29.085C88.8133 29.6609 88.5504 30.1492 88.0803 30.5151C87.0852 31.3012 85.8381 31.9463 84.3565 32.4606L84.3458 32.4643C82.8569 32.9539 81.4099 33.204 80.0082 33.204C77.6411 33.204 75.5114 32.7267 73.637 31.7563L73.6262 31.7507ZM83.0547 15.013C82.058 14.4092 80.8424 14.0936 79.3778 14.0936C77.8886 14.0936 76.6118 14.4209 75.524 15.0572C74.4277 15.6986 73.5691 16.5899 72.9475 17.7475C72.6531 18.3084 72.43 18.914 72.2796 19.5664H86.1417C86.0077 18.8562 85.7826 18.196 85.4681 17.5835C84.9021 16.4807 84.1003 15.6307 83.061 15.0167L83.0547 15.013Z" fill="#112D57"/>
<path d="M99.7311 11.3113L99.7362 11.3084C101.186 10.5204 102.786 10.1286 104.522 10.1286C105.858 10.1286 106.974 10.302 107.809 10.7067C108.243 10.9167 108.606 11.2066 108.819 11.6025C109.035 12.005 109.056 12.4447 108.944 12.8804L108.94 12.8954C108.8 13.3838 108.521 13.8247 108.023 14.0621C107.629 14.2626 107.173 14.3191 106.703 14.2879L106.7 14.2877C106.34 14.2619 105.924 14.2359 105.45 14.21L105.441 14.2095L105.431 14.2087C103.943 14.0849 102.645 14.2357 101.523 14.6399L101.515 14.6426C100.42 15.0224 99.5589 15.6072 98.9114 16.3943C98.3056 17.1641 97.992 18.0893 97.992 19.1991V30.9081C97.992 31.494 97.814 32.0324 97.3792 32.4373C96.9446 32.8423 96.3667 33.0081 95.7381 33.0081C95.1095 33.0081 94.5316 32.8423 94.0968 32.4373C93.6622 32.0324 93.4843 31.494 93.4843 30.9081V12.4635C93.4843 11.8778 93.6622 11.3394 94.0968 10.9344C94.5316 10.5294 95.1095 10.3636 95.7381 10.3636C96.3667 10.3636 96.9446 10.5294 97.3792 10.9344C97.814 11.3394 97.992 11.8778 97.992 12.4635V12.5377C98.5202 12.0707 99.1 11.6616 99.7311 11.3113Z" fill="#112D57"/>
<path d="M112.758 32.4379L112.737 32.4163C112.325 31.9938 112.146 31.4574 112.146 30.869V21.3391C112.146 20.7534 112.324 20.215 112.759 19.81C113.209 19.39 113.793 19.2 114.442 19.2C115.063 19.2 115.621 19.3909 116.042 19.8097C116.499 20.209 116.696 20.7461 116.696 21.3391V30.869C116.696 31.4736 116.492 32.0173 116.041 32.4373C115.613 32.8358 115.055 33.0082 114.442 33.0082C113.81 33.0082 113.235 32.8416 112.781 32.4575L112.758 32.4379Z" fill="#112D57"/>
<path fill-rule="evenodd" clip-rule="evenodd" d="M155.47 31.7093L155.462 31.7056C153.656 30.6847 152.219 29.3032 151.156 27.5699L151.152 27.5634C150.112 25.8192 149.599 23.8617 149.599 21.7055C149.599 19.5216 150.127 17.5484 151.198 15.802L151.202 15.7956C152.295 14.0605 153.778 12.6923 155.642 11.6992C157.515 10.6748 159.62 10.1678 161.94 10.1678C164.258 10.1678 166.35 10.6744 168.197 11.7002C170.061 12.6934 171.529 14.0622 172.594 15.7985C173.694 17.5428 174.25 19.5145 174.281 21.6978V21.7055V30.9082C174.281 31.4977 174.069 32.0243 173.625 32.4373L173.615 32.4477L173.603 32.4575C173.156 32.8356 172.599 33.0082 171.985 33.0082C171.37 33.0082 170.812 32.8356 170.365 32.4575L170.355 32.4477L170.343 32.4373C169.9 32.0243 169.689 31.4977 169.689 30.9082V30.1924C169.015 30.817 168.251 31.3623 167.4 31.8277L167.396 31.8294C165.688 32.7505 163.751 33.204 161.603 33.204C159.339 33.204 157.289 32.7096 155.47 31.7093ZM165.93 28.2689L165.936 28.2658C167.122 27.6169 168.048 26.7312 168.72 25.5995L168.722 25.5957C169.42 24.4407 169.773 23.1485 169.773 21.7055C169.773 20.2343 169.418 18.9448 168.725 17.8201L168.72 17.8115C168.048 16.6798 167.122 15.794 165.936 15.1451L165.922 15.137C164.774 14.4721 163.454 14.1328 161.94 14.1328C160.455 14.1328 159.132 14.4709 157.952 15.14L157.943 15.1452C156.754 15.7954 155.812 16.6837 155.111 17.8201C154.418 18.9448 154.064 20.2343 154.064 21.7055C154.064 23.1475 154.416 24.4389 155.112 25.5934C155.814 26.7286 156.754 27.6162 157.943 28.2659C159.124 28.9118 160.45 29.239 161.94 29.239C163.458 29.239 164.782 28.9108 165.93 28.2689Z" fill="#112D57"/>
<path d="M52.8718 31.6345L52.873 31.6369C53.0749 32.0438 53.3482 32.3917 53.714 32.6378C54.0873 32.889 54.5186 33.0082 54.9811 33.0082C55.46 33.0082 55.9085 32.8949 56.2977 32.6467C56.6826 32.4013 56.9688 32.0496 57.1745 31.6345L66.3748 13.1593C66.6233 12.6904 66.6399 12.1903 66.4406 11.7026C66.2396 11.1835 65.8525 10.7937 65.3199 10.5457L65.3027 10.5376L65.285 10.5305C64.743 10.3141 64.1751 10.2976 63.613 10.4692C63.0307 10.6282 62.6067 10.9929 62.3664 11.5108L54.9919 26.5945L47.4991 11.4851L47.4897 11.4686C47.224 11.0088 46.8266 10.6691 46.3065 10.4827C45.7505 10.2834 45.1827 10.3352 44.6503 10.5811C44.1109 10.8175 43.6938 11.1837 43.4825 11.6957C43.2767 12.1942 43.301 12.7051 43.5411 13.1899L52.8718 31.6345Z" fill="#112D57"/>
<path fill-rule="evenodd" clip-rule="evenodd" d="M122.747 27.5761C123.84 29.3108 125.321 30.6911 127.183 31.7099L127.19 31.7135C129.063 32.7109 131.167 33.2039 133.484 33.2039C135.774 33.2039 137.85 32.7105 139.696 31.7126C141.559 30.7202 143.029 29.3649 144.097 27.653C145.192 25.9132 145.766 23.9707 145.825 21.8386V3.33909C145.825 2.74116 145.624 2.20001 145.159 1.79984C144.718 1.39358 144.157 1.19995 143.529 1.19995C142.902 1.19995 142.341 1.3936 141.898 1.79987C141.433 2.20003 141.234 2.74118 141.234 3.33909V13.1834C140.46 12.4708 139.56 11.8678 138.54 11.3742C136.924 10.5663 135.122 10.1677 133.148 10.1677C130.881 10.1677 128.83 10.6762 127.01 11.7035C125.202 12.6986 123.764 14.0683 122.701 15.8019L122.697 15.8083C121.657 17.5525 121.143 19.51 121.143 21.6663C121.143 23.8501 121.671 25.8233 122.743 27.5698L122.747 27.5761ZM140.27 17.8201C140.964 18.9463 141.318 20.2232 141.318 21.6663C141.318 23.1374 140.963 24.427 140.27 25.5517L140.264 25.5603C139.592 26.6932 138.665 27.5939 137.473 28.2697C136.325 28.9111 135.003 29.2389 133.484 29.2389C131.998 29.2389 130.672 28.9126 129.492 28.2682C128.3 27.5915 127.357 26.6885 126.656 25.5517C125.963 24.427 125.609 23.1374 125.609 21.6663C125.609 20.2232 125.962 18.9463 126.656 17.8201L126.659 17.8153C127.361 16.6532 128.302 15.7541 129.487 15.1059C130.668 14.4599 131.995 14.1327 133.484 14.1327C135.003 14.1327 136.327 14.4609 137.475 15.1029L137.481 15.1059C138.663 15.7529 139.589 16.6493 140.262 17.8067L140.27 17.8201Z" fill="#112D57"/>
<path d="M112.758 16.838L112.737 16.8164C112.325 16.3938 112.146 15.8574 112.146 15.2691V12.9392C112.146 12.3534 112.324 11.815 112.759 11.41C113.209 10.99 113.793 10.8 114.442 10.8C115.064 10.8 115.621 10.991 116.042 11.4098C116.499 11.809 116.696 12.3461 116.696 12.9392V15.2691C116.696 15.8736 116.492 16.4174 116.041 16.8374C115.613 17.2359 115.055 17.4082 114.442 17.4082C113.81 17.4082 113.235 17.2416 112.781 16.8575L112.758 16.838Z" fill="#37D5C7"/>
</svg>
